<svg width="1209" height="324" viewBox="0 0 1209 324" fill="none" xmlns="http://www.w3.org/2000/svg">
<path d="M3.84 90.704C3.84 84.7307 5.12 78.672 7.68 72.528C10.24 66.2987 13.8667 60.5387 18.56 55.248C23.2533 49.9573 29.3547 45.648 36.864 42.32C44.4587 38.9067 52.2667 37.2 60.288 37.2C68.3947 37.2 74.7093 38.6933 79.232 41.68C83.84 44.6667 86.144 48.8053 86.144 54.096C86.144 59.3867 84.3947 63.5253 80.896 66.512C77.4827 69.4133 73.5573 70.864 69.12 70.864C64.6827 70.864 60.672 69.9253 57.088 68.048C53.5893 66.0853 50.7733 63.312 48.64 59.728C44.032 61.9467 40.064 66.2987 36.736 72.784C33.408 79.2693 31.744 85.7973 31.744 92.368C31.744 98.8533 32.8107 104.016 34.944 107.856C37.0773 111.611 40.1067 113.488 44.032 113.488C47.9573 113.488 51.4133 111.483 54.4 107.472C57.472 103.461 59.008 98.64 59.008 93.008C67.6267 93.008 73.7707 93.6907 77.44 95.056C81.1947 96.4213 83.072 99.3653 83.072 103.888C83.072 110.971 79.232 117.627 71.552 123.856C63.872 130.085 54.2293 133.2 42.624 133.2C31.0187 133.2 21.632 129.616 14.464 122.448C7.38133 115.28 3.84 104.699 3.84 90.704ZM162.639 62.928C167.418 62.928 171.514 64.848 174.927 68.688C178.426 72.528 180.175 78.1173 180.175 85.456C180.175 92.7093 178.895 99.4507 176.335 105.68C173.775 111.824 170.404 116.859 166.223 120.784C162.042 124.709 157.306 127.781 152.015 130C146.724 132.133 141.306 133.2 135.759 133.2C124.58 133.2 115.748 130.128 109.263 123.984C102.778 117.84 99.535 109.691 99.535 99.536C99.535 85.7973 103.93 74.6613 112.719 66.128C121.594 57.5093 132.858 53.2 146.511 53.2C149.583 53.2 152.655 53.5413 155.727 54.224C156.666 57.04 157.178 60.24 157.263 63.824C159.055 63.2267 160.847 62.928 162.639 62.928ZM146.895 80.72C146.895 78.3307 147.45 75.6427 148.559 72.656C149.754 69.6693 151.631 67.28 154.191 65.488C142.927 67.8773 135.162 72.4427 130.895 79.184C127.226 84.9867 125.391 90.96 125.391 97.104C125.391 103.248 126.628 108.197 129.103 111.952C131.663 115.621 134.906 117.456 138.831 117.456C147.535 117.456 153.679 111.781 157.263 100.432C150.351 96.1653 146.895 89.5947 146.895 80.72ZM280.379 75.984L281.659 76.624C290.79 61.008 301.968 53.2 315.195 53.2C325.52 53.2 330.683 58.3627 330.683 68.688C330.683 73.1253 329.403 80.6347 326.843 91.216C324.368 101.797 323.131 109.776 323.131 115.152C323.131 120.528 324.027 124.453 325.819 126.928C321.296 131.109 316.518 133.2 311.483 133.2C301.67 133.2 296.763 127.909 296.763 117.328C296.763 113.403 298.043 106.747 300.603 97.36C303.163 87.9733 304.443 81.872 304.443 79.056C304.443 75.216 302.992 73.296 300.091 73.296C297.702 73.296 295.014 74.3627 292.027 76.496C289.126 78.544 286.31 81.36 283.579 84.944C280.934 88.4427 278.672 92.9227 276.795 98.384C275.003 103.76 274.107 109.264 274.107 114.896C274.107 120.443 275.003 124.453 276.795 126.928C272.272 131.109 267.494 133.2 262.459 133.2C252.646 133.2 247.739 127.909 247.739 117.328C247.739 113.403 249.019 106.747 251.579 97.36C254.139 87.9733 255.419 81.872 255.419 79.056C255.419 75.216 253.968 73.296 251.067 73.296C248.678 73.296 245.99 74.3627 243.003 76.496C240.102 78.544 237.286 81.36 234.555 84.944C231.91 88.4427 229.648 92.9227 227.771 98.384C225.979 103.76 225.083 109.264 225.083 114.896C225.083 120.443 225.979 124.453 227.771 126.928C223.248 131.109 218.47 133.2 213.435 133.2C203.622 133.2 198.715 127.909 198.715 117.328C198.715 113.915 199.568 107.301 201.275 97.488C203.067 87.6747 204.902 78.7147 206.779 70.608L200.123 60.368C208.571 55.5893 216.379 53.2 223.547 53.2C230.715 53.2 234.299 56.4427 234.299 62.928C234.299 67.1947 233.318 71.5467 231.355 75.984L232.635 76.624C241.766 61.008 252.944 53.2 266.171 53.2C270.95 53.2 274.704 54.3947 277.435 56.784C280.251 59.1733 281.659 62.7573 281.659 67.536C281.659 70.096 281.232 72.912 280.379 75.984ZM364.073 155.472C358.782 155.472 355.07 154.149 352.937 151.504C350.889 148.944 349.865 145.189 349.865 140.24C349.865 135.376 350.889 125.52 352.937 110.672C355.07 95.824 357.118 83.152 359.081 72.656L351.913 62.416C357.204 59.344 361.769 57.04 365.609 55.504C369.449 53.8827 373.246 53.072 377.001 53.072C383.145 53.072 386.217 57.1253 386.217 65.232C386.217 66.3413 386.046 68.6027 385.705 72.016L386.985 72.656C389.46 66.512 393.044 61.7333 397.737 58.32C402.43 54.8213 407.934 53.072 414.249 53.072C420.649 53.072 425.726 55.9733 429.481 61.776C433.236 67.4933 435.113 74.6187 435.113 83.152C435.113 94.5867 431.102 104.997 423.081 114.384C419.156 118.992 413.908 122.747 407.337 125.648C400.766 128.464 393.428 129.872 385.321 129.872C382.846 129.872 379.604 129.659 375.593 129.232C375.337 132.219 375.209 134.992 375.209 137.552C375.209 143.013 376.532 146.896 379.177 149.2C374.398 153.381 369.364 155.472 364.073 155.472ZM380.841 102.48L377.897 117.328C388.222 117.072 396.457 113.701 402.601 107.216C408.83 100.645 411.945 93.4773 411.945 85.712C411.945 81.7013 411.134 78.5013 409.513 76.112C407.977 73.6373 405.716 72.4 402.729 72.4C392.148 72.4 384.852 82.4267 380.841 102.48ZM501.881 114.256L500.601 113.616C498.297 119.76 494.969 124.581 490.617 128.08C486.35 131.493 481.572 133.2 476.281 133.2C469.028 133.2 463.225 130.469 458.873 125.008C454.521 119.547 452.345 112.251 452.345 103.12C452.345 88.9547 457.081 77.0933 466.553 67.536C476.11 57.9787 487.972 53.2 502.137 53.2C505.806 53.2 509.177 53.5413 512.249 54.224C512.761 56.6133 513.06 58.704 513.145 60.496C517.412 57.7653 521.806 56.4 526.329 56.4C532.558 56.4 535.673 59.7707 535.673 66.512C535.673 68.9013 534.308 76.112 531.577 88.144C528.932 100.176 527.609 109.093 527.609 114.896C527.609 120.699 528.932 124.709 531.577 126.928C526.798 131.109 521.806 133.2 516.601 133.2C511.481 133.2 507.726 131.664 505.337 128.592C503.033 125.52 501.881 120.741 501.881 114.256ZM476.409 96.848C476.409 101.029 477.262 104.272 478.969 106.576C480.761 108.795 483.278 109.904 486.521 109.904C489.764 109.904 492.964 108.709 496.121 106.32C499.278 103.931 501.924 100.645 504.057 96.464C504.825 87.8453 506.489 77.648 509.049 65.872C500.43 65.872 492.836 68.9867 486.265 75.216C479.694 81.4453 476.409 88.656 476.409 96.848ZM569.635 133.2C564.6 133.2 560.888 131.877 558.499 129.232C556.11 126.587 554.915 123.088 554.915 118.736C554.915 114.384 555.768 107.301 557.475 97.488C559.267 87.6747 561.102 78.7147 562.979 70.608L556.323 60.368C564.771 55.5893 572.579 53.2 579.747 53.2C586.915 53.2 590.499 56.4427 590.499 62.928C590.499 67.1947 589.518 71.5467 587.555 75.984L588.835 76.624C597.966 61.008 609.571 53.2 623.651 53.2C633.976 53.2 639.139 58.3627 639.139 68.688C639.139 73.1253 637.859 80.6347 635.299 91.216C632.824 101.797 631.587 109.776 631.587 115.152C631.587 120.528 632.483 124.453 634.275 126.928C629.752 131.109 624.974 133.2 619.939 133.2C610.126 133.2 605.219 127.909 605.219 117.328C605.219 113.403 606.499 106.747 609.059 97.36C611.619 87.9733 612.899 81.872 612.899 79.056C612.899 75.216 611.448 73.296 608.547 73.296C606.158 73.296 603.427 74.3627 600.355 76.496C597.283 78.544 594.296 81.36 591.395 84.944C588.579 88.4427 586.19 92.9227 584.227 98.384C582.264 103.76 581.283 109.264 581.283 114.896C581.283 120.443 582.179 124.453 583.971 126.928C579.448 131.109 574.67 133.2 569.635 133.2ZM693.771 127.44C689.76 128.891 685.75 129.616 681.739 129.616C677.728 129.616 674.358 128.421 671.627 126.032C668.896 123.643 667.318 120.4 666.891 116.304C666.464 112.208 666.08 106.277 665.739 98.512C665.398 90.6613 665.056 85.1147 664.715 81.872C663.606 71.0347 660.192 63.312 654.475 58.704C658.486 55.0347 663.52 53.2 669.579 53.2C672.907 53.2 675.808 54.096 678.283 55.888C680.758 57.5947 682.72 59.8987 684.171 62.8C685.707 65.616 686.944 69.2853 687.883 73.808C689.334 81.3173 690.059 91.472 690.059 104.272C690.059 107.429 689.931 111.141 689.675 115.408H697.099C705.888 91.6853 710.283 75.5147 710.283 66.896C710.283 63.9947 709.643 61.264 708.363 58.704C714.336 55.0347 719.542 53.2 723.979 53.2C732.256 53.2 736.395 57.9787 736.395 67.536C736.395 75.1307 732.896 88.4853 725.899 107.6C724.619 111.099 723.894 113.147 723.723 113.744C712.886 144.635 697.483 160.08 677.515 160.08C671.456 160.08 666.464 158.757 662.539 156.112C658.614 153.552 656.651 150.139 656.651 145.872C656.651 141.691 658.23 137.296 661.387 132.688C665.483 138.491 670.603 141.392 676.747 141.392C680.246 141.392 683.488 140.24 686.475 137.936C689.547 135.632 691.979 132.133 693.771 127.44Z" fill="url(#paint0_linear_839_273)"/>
<path d="M342.68 299.136C342.68 294.272 343.832 285.696 346.136 273.408C348.44 261.12 349.848 253.355 350.36 250.112L343.576 236.416C354.413 230.272 363.629 227.2 371.224 227.2C374.979 227.2 377.795 228.48 379.672 231.04C386.755 228.565 393.283 227.328 399.256 227.328C410.349 227.328 418.968 230.955 425.112 238.208C431.256 245.376 434.328 254.336 434.328 265.088C434.328 279.253 429.123 292.267 418.712 304.128C413.677 309.845 407.021 314.453 398.744 317.952C390.552 321.451 381.763 323.2 372.376 323.2C362.989 323.2 355.693 321.152 350.488 317.056C345.283 312.875 342.68 306.901 342.68 299.136ZM369.816 304C371.608 304.341 373.613 304.512 375.832 304.512C385.133 304.512 392.387 301.184 397.592 294.528C402.797 287.787 405.4 279.509 405.4 269.696C405.4 261.76 403.608 255.445 400.024 250.752C396.44 246.059 391.277 243.712 384.536 243.712C383.512 243.712 381.805 243.883 379.416 244.224C378.819 248.576 377.24 258.304 374.68 273.408C372.205 288.427 370.584 298.624 369.816 304ZM495.431 304.256L494.151 303.616C491.847 309.76 488.519 314.581 484.167 318.08C479.9 321.493 475.122 323.2 469.831 323.2C462.578 323.2 456.775 320.469 452.423 315.008C448.071 309.547 445.895 302.251 445.895 293.12C445.895 278.955 450.631 267.093 460.103 257.536C469.66 247.979 481.522 243.2 495.687 243.2C499.356 243.2 502.727 243.541 505.799 244.224C506.311 246.613 506.61 248.704 506.695 250.496C510.962 247.765 515.356 246.4 519.879 246.4C526.108 246.4 529.223 249.771 529.223 256.512C529.223 258.901 527.858 266.112 525.127 278.144C522.482 290.176 521.159 299.093 521.159 304.896C521.159 310.699 522.482 314.709 525.127 316.928C520.348 321.109 515.356 323.2 510.151 323.2C505.031 323.2 501.276 321.664 498.887 318.592C496.583 315.52 495.431 310.741 495.431 304.256ZM469.959 286.848C469.959 291.029 470.812 294.272 472.519 296.576C474.311 298.795 476.828 299.904 480.071 299.904C483.314 299.904 486.514 298.709 489.671 296.32C492.828 293.931 495.474 290.645 497.607 286.464C498.375 277.845 500.039 267.648 502.599 255.872C493.98 255.872 486.386 258.987 479.815 265.216C473.244 271.445 469.959 278.656 469.959 286.848ZM589.297 260.224C586.14 261.163 583.622 262.528 581.745 264.32C579.868 266.027 578.204 268.501 576.753 271.744C591.174 273.877 601.329 276.949 607.217 280.96C613.105 284.971 616.049 290.688 616.049 298.112C616.049 302.805 614.726 306.901 612.081 310.4C609.436 313.813 606.108 316.416 602.097 318.208C594.246 321.536 586.524 323.2 578.929 323.2C557.34 323.2 546.545 318.549 546.545 309.248C546.545 304.555 548.636 299.861 552.817 295.168C554.95 298.155 558.15 300.715 562.417 302.848C566.769 304.981 570.993 306.048 575.089 306.048C582.172 306.048 586.438 302.933 587.889 296.704C574.918 295.168 565.532 292.267 559.729 288C553.926 283.733 551.025 277.717 551.025 269.952C551.025 263.808 553.03 258.645 557.041 254.464C561.137 250.283 566.172 247.381 572.145 245.76C578.204 244.053 584.988 243.2 592.497 243.2C600.092 243.2 606.321 244.651 611.185 247.552C616.134 250.368 618.609 253.824 618.609 257.92C618.609 262.016 617.158 265.173 614.257 267.392C611.441 269.611 608.326 270.72 604.913 270.72C601.585 270.72 598.513 269.824 595.697 268.032C592.966 266.24 590.833 263.637 589.297 260.224ZM707.771 243.2C718.096 243.2 723.259 248.363 723.259 258.688C723.259 263.125 721.979 270.635 719.419 281.216C716.944 291.797 715.707 299.776 715.707 305.152C715.707 310.528 716.603 314.453 718.395 316.928C713.872 321.109 709.094 323.2 704.059 323.2C694.246 323.2 689.339 317.909 689.339 307.328C689.339 303.403 690.619 296.747 693.179 287.36C695.739 277.973 697.019 271.872 697.019 269.056C697.019 265.216 695.568 263.296 692.667 263.296C690.278 263.296 687.547 264.363 684.475 266.496C681.403 268.544 678.416 271.36 675.515 274.944C672.699 278.443 670.31 282.923 668.347 288.384C666.384 293.76 665.403 299.264 665.403 304.896C665.403 310.443 666.299 314.453 668.091 316.928C663.568 321.109 658.79 323.2 653.755 323.2C643.942 323.2 639.035 317.909 639.035 307.328C639.035 301.013 640.742 288.213 644.155 268.928C647.056 251.947 648.72 242.432 649.147 240.384L641.979 230.144C652.646 223.915 661.051 220.8 667.195 220.8C670.694 220.8 673.168 221.525 674.619 222.976C676.07 224.341 676.795 226.645 676.795 229.888C676.795 236.032 676.198 242.731 675.003 249.984C673.808 257.237 672.699 262.571 671.675 265.984L672.955 266.624C682.086 251.008 693.691 243.2 707.771 243.2ZM743.923 295.68C743.923 288.512 746.696 270.08 752.243 240.384L745.075 230.144C750.366 226.987 754.803 224.64 758.387 223.104C762.056 221.568 765.683 220.8 769.267 220.8C772.936 220.8 775.624 221.525 777.331 222.976C779.038 224.427 779.891 226.731 779.891 229.888C779.891 235.349 778.227 246.059 774.899 262.016L776.179 262.656C782.323 250.453 791.283 244.352 803.059 244.352C809.715 244.352 814.92 247.211 818.675 252.928C822.43 258.56 824.307 265.429 824.307 273.536C824.307 281.557 822.686 288.811 819.443 295.296C816.286 301.696 812.147 306.901 807.027 310.912C801.992 314.837 796.488 317.867 790.515 320C784.542 322.133 778.611 323.2 772.723 323.2C763.08 323.2 755.87 320.981 751.091 316.544C746.312 312.107 743.923 305.152 743.923 295.68ZM769.267 308.352C778.739 308.352 786.419 305.109 792.307 298.624C798.28 292.139 801.267 284.885 801.267 276.864C801.267 273.195 800.243 269.867 798.195 266.88C796.232 263.893 793.63 262.4 790.387 262.4C787.144 262.4 784.115 263.723 781.299 266.368C778.568 269.013 776.435 272.171 774.899 275.84C773.448 279.509 772.254 283.648 771.315 288.256C769.95 295.509 769.267 302.208 769.267 308.352ZM905.364 252.928C910.143 252.928 914.239 254.848 917.652 258.688C921.151 262.528 922.9 268.117 922.9 275.456C922.9 282.709 921.62 289.451 919.06 295.68C916.5 301.824 913.129 306.859 908.948 310.784C904.767 314.709 900.031 317.781 894.74 320C889.449 322.133 884.031 323.2 878.484 323.2C867.305 323.2 858.473 320.128 851.988 313.984C845.503 307.84 842.26 299.691 842.26 289.536C842.26 275.797 846.655 264.661 855.444 256.128C864.319 247.509 875.583 243.2 889.236 243.2C892.308 243.2 895.38 243.541 898.452 244.224C899.391 247.04 899.903 250.24 899.988 253.824C901.78 253.227 903.572 252.928 905.364 252.928ZM889.62 270.72C889.62 268.331 890.175 265.643 891.284 262.656C892.479 259.669 894.356 257.28 896.916 255.488C885.652 257.877 877.887 262.443 873.62 269.184C869.951 274.987 868.116 280.96 868.116 287.104C868.116 293.248 869.353 298.197 871.828 301.952C874.388 305.621 877.631 307.456 881.556 307.456C890.26 307.456 896.404 301.781 899.988 290.432C893.076 286.165 889.62 279.595 889.62 270.72ZM989.056 304.256L987.776 303.616C985.472 309.76 982.144 314.581 977.792 318.08C973.525 321.493 968.747 323.2 963.456 323.2C956.203 323.2 950.4 320.469 946.048 315.008C941.696 309.547 939.52 302.251 939.52 293.12C939.52 278.955 944.256 267.093 953.728 257.536C963.285 247.979 975.147 243.2 989.312 243.2C992.981 243.2 996.352 243.541 999.424 244.224C999.936 246.613 1000.23 248.704 1000.32 250.496C1004.59 247.765 1008.98 246.4 1013.5 246.4C1019.73 246.4 1022.85 249.771 1022.85 256.512C1022.85 258.901 1021.48 266.112 1018.75 278.144C1016.11 290.176 1014.78 299.093 1014.78 304.896C1014.78 310.699 1016.11 314.709 1018.75 316.928C1013.97 321.109 1008.98 323.2 1003.78 323.2C998.656 323.2 994.901 321.664 992.512 318.592C990.208 315.52 989.056 310.741 989.056 304.256ZM963.584 286.848C963.584 291.029 964.437 294.272 966.144 296.576C967.936 298.795 970.453 299.904 973.696 299.904C976.939 299.904 980.139 298.709 983.296 296.32C986.453 293.931 989.099 290.645 991.232 286.464C992 277.845 993.664 267.648 996.224 255.872C987.605 255.872 980.011 258.987 973.44 265.216C966.869 271.445 963.584 278.656 963.584 286.848ZM1042.09 307.328C1042.09 303.915 1042.94 297.301 1044.65 287.488C1046.44 277.675 1048.28 268.715 1050.15 260.608L1043.5 250.368C1054.16 245.589 1061.63 243.2 1065.9 243.2C1070.25 243.2 1072.43 245.931 1072.43 251.392C1072.43 254.379 1071.02 260.608 1068.2 270.08L1069.48 270.72C1075.63 252.373 1083.26 243.2 1092.39 243.2C1096.58 243.2 1099.78 244.48 1101.99 247.04C1104.21 249.6 1105.32 252.459 1105.32 255.616C1105.32 260.309 1103.57 264.32 1100.07 267.648C1096.58 270.976 1091.33 272.64 1084.33 272.64C1073.75 272.64 1068.46 283.52 1068.46 305.28C1068.46 310.571 1069.35 314.453 1071.15 316.928C1065.86 321.109 1060.99 323.2 1056.55 323.2C1046.91 323.2 1042.09 317.909 1042.09 307.328ZM1164.5 310.656L1163.22 310.016C1156.56 318.805 1148.62 323.2 1139.41 323.2C1132.58 323.2 1126.78 320.512 1122 315.136C1117.31 309.675 1114.96 302.336 1114.96 293.12C1114.96 281.685 1118.97 271.275 1126.99 261.888C1130.92 257.28 1136.17 253.568 1142.74 250.752C1149.31 247.851 1156.65 246.4 1164.75 246.4C1166.29 246.4 1169.02 246.571 1172.94 246.912C1173.11 245.12 1173.5 242.944 1174.1 240.384L1166.93 230.144C1177.59 223.915 1186 220.8 1192.14 220.8C1195.64 220.8 1198.12 221.525 1199.57 222.976C1201.02 224.341 1201.74 226.987 1201.74 230.912C1201.74 234.752 1199.82 245.675 1195.98 263.68C1192.23 281.685 1190.35 294.485 1190.35 302.08C1190.35 309.589 1191.67 314.539 1194.32 316.928C1189.54 321.109 1184.55 323.2 1179.34 323.2C1174.22 323.2 1170.47 321.92 1168.08 319.36C1165.69 316.715 1164.5 313.813 1164.5 310.656ZM1139.02 288.256C1139.02 293.12 1140.26 296.96 1142.74 299.776C1145.3 302.592 1148.45 304 1152.21 304C1157.07 304 1161.51 301.696 1165.52 297.088C1166.89 281.899 1168.81 268.757 1171.28 257.664C1161.47 257.664 1153.62 260.821 1147.73 267.136C1141.93 273.451 1139.02 280.491 1139.02 288.256Z" fill="url(#paint1_linear_839_273)"/>
<defs>
<linearGradient id="paint0_linear_839_273" x1="386" y1="0" x2="386" y2="128" gradientUnits="userSpaceOnUse">
<stop offset="0.41" stop-color="#A60000"/>
<stop offset="0.93" stop-color="#F75757"/>
</linearGradient>
<linearGradient id="paint1_linear_839_273" x1="772" y1="190" x2="772" y2="318" gradientUnits="userSpaceOnUse">
<stop offset="0.41" stop-color="#A60000"/>
<stop offset="0.93" stop-color="#F75757"/>
</linearGradient>
</defs>
</svg>
