<svg width="373" height="154" viewBox="0 0 373 154" fill="none" xmlns="http://www.w3.org/2000/svg">
<g filter="url(#filter0_dd_833_272)">
<mask id="path-1-outside-1_833_272" maskUnits="userSpaceOnUse" x="4" y="12" width="174" height="50" fill="black">
<rect fill="white" x="4" y="12" width="174" height="50"/>
<path d="M42.4 58.36C32.8853 59.2133 24.992 59.64 18.72 59.64C14.5387 59.64 11.4667 58.6587 9.504 56.696C7.54133 54.7333 6.56 51.6613 6.56 47.48V27C6.56 22.52 7.56267 19.2773 9.568 17.272C11.616 15.224 14.88 14.2 19.36 14.2H42.4V23.16H21.92C19.36 23.16 18.08 24.44 18.08 27V47.48C18.08 48.4613 18.3573 49.2507 18.912 49.848C19.5093 50.4027 20.256 50.68 21.152 50.68C22.048 50.68 23.0293 50.68 24.096 50.68C25.1627 50.6373 26.272 50.5947 27.424 50.552C28.576 50.5093 29.728 50.4667 30.88 50.424C32.0747 50.3813 33.5893 50.296 35.424 50.168C37.3013 50.04 39.6267 49.8907 42.4 49.72V58.36ZM58.7275 59H46.2475L63.2075 14.2H76.0075L92.9675 59H80.4875L77.6075 51H61.6075L58.7275 59ZM64.4875 42.68H74.7275L69.6075 27.64L64.4875 42.68ZM99.365 14.2H126.245C130.725 14.2 133.968 15.224 135.973 17.272C138.021 19.2773 139.045 22.52 139.045 27V32.76C139.045 36.3013 138.448 39.0533 137.253 41.016C136.101 42.9787 134.245 44.28 131.685 44.92L139.685 59H127.205L119.845 45.56H110.885V59H99.365V14.2ZM127.525 27C127.525 24.44 126.245 23.16 123.685 23.16H110.885V36.6H123.685C126.245 36.6 127.525 35.32 127.525 32.76V27ZM144.788 59L163.988 14.2H174.868L156.308 59H144.788Z"/>
</mask>
<path d="M42.4 58.36C32.8853 59.2133 24.992 59.64 18.72 59.64C14.5387 59.64 11.4667 58.6587 9.504 56.696C7.54133 54.7333 6.56 51.6613 6.56 47.48V27C6.56 22.52 7.56267 19.2773 9.568 17.272C11.616 15.224 14.88 14.2 19.36 14.2H42.4V23.16H21.92C19.36 23.16 18.08 24.44 18.08 27V47.48C18.08 48.4613 18.3573 49.2507 18.912 49.848C19.5093 50.4027 20.256 50.68 21.152 50.68C22.048 50.68 23.0293 50.68 24.096 50.68C25.1627 50.6373 26.272 50.5947 27.424 50.552C28.576 50.5093 29.728 50.4667 30.88 50.424C32.0747 50.3813 33.5893 50.296 35.424 50.168C37.3013 50.04 39.6267 49.8907 42.4 49.72V58.36ZM58.7275 59H46.2475L63.2075 14.2H76.0075L92.9675 59H80.4875L77.6075 51H61.6075L58.7275 59ZM64.4875 42.68H74.7275L69.6075 27.64L64.4875 42.68ZM99.365 14.2H126.245C130.725 14.2 133.968 15.224 135.973 17.272C138.021 19.2773 139.045 22.52 139.045 27V32.76C139.045 36.3013 138.448 39.0533 137.253 41.016C136.101 42.9787 134.245 44.28 131.685 44.92L139.685 59H127.205L119.845 45.56H110.885V59H99.365V14.2ZM127.525 27C127.525 24.44 126.245 23.16 123.685 23.16H110.885V36.6H123.685C126.245 36.6 127.525 35.32 127.525 32.76V27ZM144.788 59L163.988 14.2H174.868L156.308 59H144.788Z" fill="#F75757"/>
<path d="M42.4 58.36L42.5787 60.352L44.4 60.1887V58.36H42.4ZM9.504 56.696L10.9182 55.2818L10.9182 55.2818L9.504 56.696ZM9.568 17.272L10.9822 18.6862L10.9822 18.6862L9.568 17.272ZM42.4 14.2H44.4V12.2H42.4V14.2ZM42.4 23.16V25.16H44.4V23.16H42.4ZM18.912 49.848L17.4464 51.2089L17.4968 51.2632L17.5511 51.3136L18.912 49.848ZM24.096 50.68V52.68H24.136L24.1759 52.6784L24.096 50.68ZM27.424 50.552L27.498 52.5506L27.498 52.5506L27.424 50.552ZM30.88 50.424L30.8086 48.4253L30.806 48.4254L30.88 50.424ZM35.424 50.168L35.288 48.1726L35.2848 48.1728L35.424 50.168ZM42.4 49.72H44.4V47.5931L42.2772 47.7238L42.4 49.72ZM42.2213 56.368C32.7389 57.2184 24.9102 57.64 18.72 57.64V61.64C25.0738 61.64 33.0318 61.2082 42.5787 60.352L42.2213 56.368ZM18.72 57.64C14.8041 57.64 12.3528 56.7163 10.9182 55.2818L8.08979 58.1102C10.5806 60.601 14.2732 61.64 18.72 61.64V57.64ZM10.9182 55.2818C9.48368 53.8472 8.56 51.3959 8.56 47.48H4.56C4.56 51.9268 5.59899 55.6194 8.08979 58.1102L10.9182 55.2818ZM8.56 47.48V27H4.56V47.48H8.56ZM8.56 27C8.56 22.7529 9.5199 20.1485 10.9822 18.6862L8.15379 15.8578C5.60543 18.4061 4.56 22.2871 4.56 27H8.56ZM10.9822 18.6862C12.4937 17.1747 15.1274 16.2 19.36 16.2V12.2C14.6326 12.2 10.7383 13.2733 8.15379 15.8578L10.9822 18.6862ZM19.36 16.2H42.4V12.2H19.36V16.2ZM40.4 14.2V23.16H44.4V14.2H40.4ZM42.4 21.16H21.92V25.16H42.4V21.16ZM21.92 21.16C20.3317 21.16 18.7731 21.5584 17.6258 22.7058C16.4784 23.8531 16.08 25.4117 16.08 27H20.08C20.08 26.0283 20.3216 25.6669 20.4542 25.5342C20.5869 25.4016 20.9483 25.16 21.92 25.16V21.16ZM16.08 27V47.48H20.08V27H16.08ZM16.08 47.48C16.08 48.8573 16.4807 50.1689 17.4464 51.2089L20.3776 48.4871C20.2339 48.3324 20.08 48.0653 20.08 47.48H16.08ZM17.5511 51.3136C18.5564 52.2471 19.8056 52.68 21.152 52.68V48.68C20.7064 48.68 20.4623 48.5583 20.2729 48.3824L17.5511 51.3136ZM21.152 52.68C21.1538 52.68 21.1555 52.68 21.1573 52.68C21.159 52.68 21.1608 52.68 21.1625 52.68C21.1643 52.68 21.166 52.68 21.1678 52.68C21.1695 52.68 21.1713 52.68 21.173 52.68C21.1748 52.68 21.1765 52.68 21.1783 52.68C21.18 52.68 21.1818 52.68 21.1835 52.68C21.1853 52.68 21.187 52.68 21.1888 52.68C21.1906 52.68 21.1923 52.68 21.1941 52.68C21.1958 52.68 21.1976 52.68 21.1993 52.68C21.2011 52.68 21.2028 52.68 21.2046 52.68C21.2064 52.68 21.2081 52.68 21.2099 52.68C21.2116 52.68 21.2134 52.68 21.2151 52.68C21.2169 52.68 21.2187 52.68 21.2204 52.68C21.2222 52.68 21.2239 52.68 21.2257 52.68C21.2275 52.68 21.2292 52.68 21.231 52.68C21.2327 52.68 21.2345 52.68 21.2363 52.68C21.238 52.68 21.2398 52.68 21.2415 52.68C21.2433 52.68 21.2451 52.68 21.2468 52.68C21.2486 52.68 21.2503 52.68 21.2521 52.68C21.2539 52.68 21.2556 52.68 21.2574 52.68C21.2592 52.68 21.2609 52.68 21.2627 52.68C21.2644 52.68 21.2662 52.68 21.268 52.68C21.2697 52.68 21.2715 52.68 21.2733 52.68C21.275 52.68 21.2768 52.68 21.2786 52.68C21.2803 52.68 21.2821 52.68 21.2839 52.68C21.2856 52.68 21.2874 52.68 21.2892 52.68C21.2909 52.68 21.2927 52.68 21.2945 52.68C21.2962 52.68 21.298 52.68 21.2998 52.68C21.3015 52.68 21.3033 52.68 21.3051 52.68C21.3068 52.68 21.3086 52.68 21.3104 52.68C21.3121 52.68 21.3139 52.68 21.3157 52.68C21.3175 52.68 21.3192 52.68 21.321 52.68C21.3228 52.68 21.3245 52.68 21.3263 52.68C21.3281 52.68 21.3299 52.68 21.3316 52.68C21.3334 52.68 21.3352 52.68 21.3369 52.68C21.3387 52.68 21.3405 52.68 21.3423 52.68C21.344 52.68 21.3458 52.68 21.3476 52.68C21.3494 52.68 21.3511 52.68 21.3529 52.68C21.3547 52.68 21.3565 52.68 21.3582 52.68C21.36 52.68 21.3618 52.68 21.3636 52.68C21.3653 52.68 21.3671 52.68 21.3689 52.68C21.3707 52.68 21.3724 52.68 21.3742 52.68C21.376 52.68 21.3778 52.68 21.3796 52.68C21.3813 52.68 21.3831 52.68 21.3849 52.68C21.3867 52.68 21.3884 52.68 21.3902 52.68C21.392 52.68 21.3938 52.68 21.3956 52.68C21.3973 52.68 21.3991 52.68 21.4009 52.68C21.4027 52.68 21.4045 52.68 21.4063 52.68C21.408 52.68 21.4098 52.68 21.4116 52.68C21.4134 52.68 21.4152 52.68 21.4169 52.68C21.4187 52.68 21.4205 52.68 21.4223 52.68C21.4241 52.68 21.4259 52.68 21.4276 52.68C21.4294 52.68 21.4312 52.68 21.433 52.68C21.4348 52.68 21.4366 52.68 21.4383 52.68C21.4401 52.68 21.4419 52.68 21.4437 52.68C21.4455 52.68 21.4473 52.68 21.4491 52.68C21.4508 52.68 21.4526 52.68 21.4544 52.68C21.4562 52.68 21.458 52.68 21.4598 52.68C21.4616 52.68 21.4634 52.68 21.4651 52.68C21.4669 52.68 21.4687 52.68 21.4705 52.68C21.4723 52.68 21.4741 52.68 21.4759 52.68C21.4777 52.68 21.4795 52.68 21.4813 52.68C21.483 52.68 21.4848 52.68 21.4866 52.68C21.4884 52.68 21.4902 52.68 21.492 52.68C21.4938 52.68 21.4956 52.68 21.4974 52.68C21.4992 52.68 21.501 52.68 21.5028 52.68C21.5045 52.68 21.5063 52.68 21.5081 52.68C21.5099 52.68 21.5117 52.68 21.5135 52.68C21.5153 52.68 21.5171 52.68 21.5189 52.68C21.5207 52.68 21.5225 52.68 21.5243 52.68C21.5261 52.68 21.5279 52.68 21.5297 52.68C21.5315 52.68 21.5333 52.68 21.5351 52.68C21.5369 52.68 21.5387 52.68 21.5405 52.68C21.5423 52.68 21.544 52.68 21.5458 52.68C21.5476 52.68 21.5494 52.68 21.5512 52.68C21.553 52.68 21.5548 52.68 21.5566 52.68C21.5584 52.68 21.5602 52.68 21.562 52.68C21.5638 52.68 21.5656 52.68 21.5674 52.68C21.5692 52.68 21.571 52.68 21.5728 52.68C21.5746 52.68 21.5764 52.68 21.5783 52.68C21.5801 52.68 21.5819 52.68 21.5837 52.68C21.5855 52.68 21.5873 52.68 21.5891 52.68C21.5909 52.68 21.5927 52.68 21.5945 52.68C21.5963 52.68 21.5981 52.68 21.5999 52.68C21.6017 52.68 21.6035 52.68 21.6053 52.68C21.6071 52.68 21.6089 52.68 21.6107 52.68C21.6125 52.68 21.6143 52.68 21.6161 52.68C21.6179 52.68 21.6198 52.68 21.6216 52.68C21.6234 52.68 21.6252 52.68 21.627 52.68C21.6288 52.68 21.6306 52.68 21.6324 52.68C21.6342 52.68 21.636 52.68 21.6378 52.68C21.6396 52.68 21.6415 52.68 21.6433 52.68C21.6451 52.68 21.6469 52.68 21.6487 52.68C21.6505 52.68 21.6523 52.68 21.6541 52.68C21.6559 52.68 21.6578 52.68 21.6596 52.68C21.6614 52.68 21.6632 52.68 21.665 52.68C21.6668 52.68 21.6686 52.68 21.6704 52.68C21.6723 52.68 21.6741 52.68 21.6759 52.68C21.6777 52.68 21.6795 52.68 21.6813 52.68C21.6831 52.68 21.685 52.68 21.6868 52.68C21.6886 52.68 21.6904 52.68 21.6922 52.68C21.694 52.68 21.6958 52.68 21.6977 52.68C21.6995 52.68 21.7013 52.68 21.7031 52.68C21.7049 52.68 21.7067 52.68 21.7086 52.68C21.7104 52.68 21.7122 52.68 21.714 52.68C21.7158 52.68 21.7177 52.68 21.7195 52.68C21.7213 52.68 21.7231 52.68 21.7249 52.68C21.7268 52.68 21.7286 52.68 21.7304 52.68C21.7322 52.68 21.734 52.68 21.7359 52.68C21.7377 52.68 21.7395 52.68 21.7413 52.68C21.7431 52.68 21.745 52.68 21.7468 52.68C21.7486 52.68 21.7504 52.68 21.7523 52.68C21.7541 52.68 21.7559 52.68 21.7577 52.68C21.7595 52.68 21.7614 52.68 21.7632 52.68C21.765 52.68 21.7668 52.68 21.7687 52.68C21.7705 52.68 21.7723 52.68 21.7741 52.68C21.776 52.68 21.7778 52.68 21.7796 52.68C21.7814 52.68 21.7833 52.68 21.7851 52.68C21.7869 52.68 21.7888 52.68 21.7906 52.68C21.7924 52.68 21.7942 52.68 21.7961 52.68C21.7979 52.68 21.7997 52.68 21.8015 52.68C21.8034 52.68 21.8052 52.68 21.807 52.68C21.8089 52.68 21.8107 52.68 21.8125 52.68C21.8144 52.68 21.8162 52.68 21.818 52.68C21.8198 52.68 21.8217 52.68 21.8235 52.68C21.8253 52.68 21.8272 52.68 21.829 52.68C21.8308 52.68 21.8327 52.68 21.8345 52.68C21.8363 52.68 21.8382 52.68 21.84 52.68C21.8418 52.68 21.8437 52.68 21.8455 52.68C21.8473 52.68 21.8492 52.68 21.851 52.68C21.8528 52.68 21.8547 52.68 21.8565 52.68C21.8583 52.68 21.8602 52.68 21.862 52.68C21.8639 52.68 21.8657 52.68 21.8675 52.68C21.8694 52.68 21.8712 52.68 21.873 52.68C21.8749 52.68 21.8767 52.68 21.8785 52.68C21.8804 52.68 21.8822 52.68 21.8841 52.68C21.8859 52.68 21.8877 52.68 21.8896 52.68C21.8914 52.68 21.8933 52.68 21.8951 52.68C21.8969 52.68 21.8988 52.68 21.9006 52.68C21.9025 52.68 21.9043 52.68 21.9061 52.68C21.908 52.68 21.9098 52.68 21.9117 52.68C21.9135 52.68 21.9153 52.68 21.9172 52.68C21.919 52.68 21.9209 52.68 21.9227 52.68C21.9246 52.68 21.9264 52.68 21.9283 52.68C21.9301 52.68 21.9319 52.68 21.9338 52.68C21.9356 52.68 21.9375 52.68 21.9393 52.68C21.9412 52.68 21.943 52.68 21.9449 52.68C21.9467 52.68 21.9485 52.68 21.9504 52.68C21.9522 52.68 21.9541 52.68 21.9559 52.68C21.9578 52.68 21.9596 52.68 21.9615 52.68C21.9633 52.68 21.9652 52.68 21.967 52.68C21.9689 52.68 21.9707 52.68 21.9726 52.68C21.9744 52.68 21.9763 52.68 21.9781 52.68C21.98 52.68 21.9818 52.68 21.9837 52.68C21.9855 52.68 21.9874 52.68 21.9892 52.68C21.9911 52.68 21.9929 52.68 21.9948 52.68C21.9966 52.68 21.9985 52.68 22.0003 52.68C22.0022 52.68 22.004 52.68 22.0059 52.68C22.0077 52.68 22.0096 52.68 22.0114 52.68C22.0133 52.68 22.0151 52.68 22.017 52.68C22.0189 52.68 22.0207 52.68 22.0226 52.68C22.0244 52.68 22.0263 52.68 22.0281 52.68C22.03 52.68 22.0318 52.68 22.0337 52.68C22.0356 52.68 22.0374 52.68 22.0393 52.68C22.0411 52.68 22.043 52.68 22.0448 52.68C22.0467 52.68 22.0486 52.68 22.0504 52.68C22.0523 52.68 22.0541 52.68 22.056 52.68C22.0578 52.68 22.0597 52.68 22.0616 52.68C22.0634 52.68 22.0653 52.68 22.0671 52.68C22.069 52.68 22.0709 52.68 22.0727 52.68C22.0746 52.68 22.0764 52.68 22.0783 52.68C22.0802 52.68 22.082 52.68 22.0839 52.68C22.0858 52.68 22.0876 52.68 22.0895 52.68C22.0913 52.68 22.0932 52.68 22.0951 52.68C22.0969 52.68 22.0988 52.68 22.1007 52.68C22.1025 52.68 22.1044 52.68 22.1063 52.68C22.1081 52.68 22.11 52.68 22.1118 52.68C22.1137 52.68 22.1156 52.68 22.1174 52.68C22.1193 52.68 22.1212 52.68 22.123 52.68C22.1249 52.68 22.1268 52.68 22.1286 52.68C22.1305 52.68 22.1324 52.68 22.1342 52.68C22.1361 52.68 22.138 52.68 22.1398 52.68C22.1417 52.68 22.1436 52.68 22.1455 52.68C22.1473 52.68 22.1492 52.68 22.1511 52.68C22.1529 52.68 22.1548 52.68 22.1567 52.68C22.1585 52.68 22.1604 52.68 22.1623 52.68C22.1642 52.68 22.166 52.68 22.1679 52.68C22.1698 52.68 22.1716 52.68 22.1735 52.68C22.1754 52.68 22.1773 52.68 22.1791 52.68C22.181 52.68 22.1829 52.68 22.1848 52.68C22.1866 52.68 22.1885 52.68 22.1904 52.68C22.1923 52.68 22.1941 52.68 22.196 52.68C22.1979 52.68 22.1998 52.68 22.2016 52.68C22.2035 52.68 22.2054 52.68 22.2073 52.68C22.2091 52.68 22.211 52.68 22.2129 52.68C22.2148 52.68 22.2166 52.68 22.2185 52.68C22.2204 52.68 22.2223 52.68 22.2241 52.68C22.226 52.68 22.2279 52.68 22.2298 52.68C22.2317 52.68 22.2335 52.68 22.2354 52.68C22.2373 52.68 22.2392 52.68 22.2411 52.68C22.2429 52.68 22.2448 52.68 22.2467 52.68C22.2486 52.68 22.2505 52.68 22.2523 52.68C22.2542 52.68 22.2561 52.68 22.258 52.68C22.2599 52.68 22.2618 52.68 22.2636 52.68C22.2655 52.68 22.2674 52.68 22.2693 52.68C22.2712 52.68 22.2731 52.68 22.2749 52.68C22.2768 52.68 22.2787 52.68 22.2806 52.68C22.2825 52.68 22.2844 52.68 22.2863 52.68C22.2881 52.68 22.29 52.68 22.2919 52.68C22.2938 52.68 22.2957 52.68 22.2976 52.68C22.2995 52.68 22.3013 52.68 22.3032 52.68C22.3051 52.68 22.307 52.68 22.3089 52.68C22.3108 52.68 22.3127 52.68 22.3146 52.68C22.3164 52.68 22.3183 52.68 22.3202 52.68C22.3221 52.68 22.324 52.68 22.3259 52.68C22.3278 52.68 22.3297 52.68 22.3316 52.68C22.3335 52.68 22.3353 52.68 22.3372 52.68C22.3391 52.68 22.341 52.68 22.3429 52.68C22.3448 52.68 22.3467 52.68 22.3486 52.68C22.3505 52.68 22.3524 52.68 22.3543 52.68C22.3562 52.68 22.3581 52.68 22.3599 52.68C22.3618 52.68 22.3637 52.68 22.3656 52.68C22.3675 52.68 22.3694 52.68 22.3713 52.68C22.3732 52.68 22.3751 52.68 22.377 52.68C22.3789 52.68 22.3808 52.68 22.3827 52.68C22.3846 52.68 22.3865 52.68 22.3884 52.68C22.3903 52.68 22.3922 52.68 22.3941 52.68C22.396 52.68 22.3979 52.68 22.3998 52.68C22.4017 52.68 22.4036 52.68 22.4055 52.68C22.4074 52.68 22.4093 52.68 22.4112 52.68C22.4131 52.68 22.415 52.68 22.4169 52.68C22.4188 52.68 22.4207 52.68 22.4226 52.68C22.4245 52.68 22.4264 52.68 22.4283 52.68C22.4302 52.68 22.4321 52.68 22.434 52.68C22.4359 52.68 22.4378 52.68 22.4397 52.68C22.4416 52.68 22.4435 52.68 22.4454 52.68C22.4473 52.68 22.4492 52.68 22.4511 52.68C22.453 52.68 22.4549 52.68 22.4568 52.68C22.4587 52.68 22.4606 52.68 22.4625 52.68C22.4644 52.68 22.4663 52.68 22.4683 52.68C22.4702 52.68 22.4721 52.68 22.474 52.68C22.4759 52.68 22.4778 52.68 22.4797 52.68C22.4816 52.68 22.4835 52.68 22.4854 52.68C22.4873 52.68 22.4892 52.68 22.4911 52.68C22.493 52.68 22.495 52.68 22.4969 52.68C22.4988 52.68 22.5007 52.68 22.5026 52.68C22.5045 52.68 22.5064 52.68 22.5083 52.68C22.5102 52.68 22.5122 52.68 22.5141 52.68C22.516 52.68 22.5179 52.68 22.5198 52.68C22.5217 52.68 22.5236 52.68 22.5255 52.68C22.5274 52.68 22.5294 52.68 22.5313 52.68C22.5332 52.68 22.5351 52.68 22.537 52.68C22.5389 52.68 22.5408 52.68 22.5428 52.68C22.5447 52.68 22.5466 52.68 22.5485 52.68C22.5504 52.68 22.5523 52.68 22.5543 52.68C22.5562 52.68 22.5581 52.68 22.56 52.68C22.5619 52.68 22.5638 52.68 22.5658 52.68C22.5677 52.68 22.5696 52.68 22.5715 52.68C22.5734 52.68 22.5753 52.68 22.5773 52.68C22.5792 52.68 22.5811 52.68 22.583 52.68C22.5849 52.68 22.5869 52.68 22.5888 52.68C22.5907 52.68 22.5926 52.68 22.5945 52.68C22.5965 52.68 22.5984 52.68 22.6003 52.68C22.6022 52.68 22.6041 52.68 22.6061 52.68C22.608 52.68 22.6099 52.68 22.6118 52.68C22.6138 52.68 22.6157 52.68 22.6176 52.68C22.6195 52.68 22.6214 52.68 22.6234 52.68C22.6253 52.68 22.6272 52.68 22.6291 52.68C22.6311 52.68 22.633 52.68 22.6349 52.68C22.6368 52.68 22.6388 52.68 22.6407 52.68C22.6426 52.68 22.6445 52.68 22.6465 52.68C22.6484 52.68 22.6503 52.68 22.6523 52.68C22.6542 52.68 22.6561 52.68 22.658 52.68C22.66 52.68 22.6619 52.68 22.6638 52.68C22.6657 52.68 22.6677 52.68 22.6696 52.68C22.6715 52.68 22.6735 52.68 22.6754 52.68C22.6773 52.68 22.6793 52.68 22.6812 52.68C22.6831 52.68 22.685 52.68 22.687 52.68C22.6889 52.68 22.6908 52.68 22.6928 52.68C22.6947 52.68 22.6966 52.68 22.6986 52.68C22.7005 52.68 22.7024 52.68 22.7044 52.68C22.7063 52.68 22.7082 52.68 22.7102 52.68C22.7121 52.68 22.714 52.68 22.716 52.68C22.7179 52.68 22.7198 52.68 22.7218 52.68C22.7237 52.68 22.7256 52.68 22.7276 52.68C22.7295 52.68 22.7314 52.68 22.7334 52.68C22.7353 52.68 22.7373 52.68 22.7392 52.68C22.7411 52.68 22.7431 52.68 22.745 52.68C22.7469 52.68 22.7489 52.68 22.7508 52.68C22.7528 52.68 22.7547 52.68 22.7566 52.68C22.7586 52.68 22.7605 52.68 22.7624 52.68C22.7644 52.68 22.7663 52.68 22.7683 52.68C22.7702 52.68 22.7721 52.68 22.7741 52.68C22.776 52.68 22.778 52.68 22.7799 52.68C22.7819 52.68 22.7838 52.68 22.7857 52.68C22.7877 52.68 22.7896 52.68 22.7916 52.68C22.7935 52.68 22.7954 52.68 22.7974 52.68C22.7993 52.68 22.8013 52.68 22.8032 52.68C22.8052 52.68 22.8071 52.68 22.8091 52.68C22.811 52.68 22.8129 52.68 22.8149 52.68C22.8168 52.68 22.8188 52.68 22.8207 52.68C22.8227 52.68 22.8246 52.68 22.8266 52.68C22.8285 52.68 22.8305 52.68 22.8324 52.68C22.8344 52.68 22.8363 52.68 22.8383 52.68C22.8402 52.68 22.8421 52.68 22.8441 52.68C22.846 52.68 22.848 52.68 22.8499 52.68C22.8519 52.68 22.8538 52.68 22.8558 52.68C22.8577 52.68 22.8597 52.68 22.8616 52.68C22.8636 52.68 22.8655 52.68 22.8675 52.68C22.8694 52.68 22.8714 52.68 22.8733 52.68C22.8753 52.68 22.8773 52.68 22.8792 52.68C22.8812 52.68 22.8831 52.68 22.8851 52.68C22.887 52.68 22.889 52.68 22.8909 52.68C22.8929 52.68 22.8948 52.68 22.8968 52.68C22.8987 52.68 22.9007 52.68 22.9026 52.68C22.9046 52.68 22.9066 52.68 22.9085 52.68C22.9105 52.68 22.9124 52.68 22.9144 52.68C22.9163 52.68 22.9183 52.68 22.9203 52.68C22.9222 52.68 22.9242 52.68 22.9261 52.68C22.9281 52.68 22.93 52.68 22.932 52.68C22.934 52.68 22.9359 52.68 22.9379 52.68C22.9398 52.68 22.9418 52.68 22.9438 52.68C22.9457 52.68 22.9477 52.68 22.9496 52.68C22.9516 52.68 22.9536 52.68 22.9555 52.68C22.9575 52.68 22.9594 52.68 22.9614 52.68C22.9634 52.68 22.9653 52.68 22.9673 52.68C22.9692 52.68 22.9712 52.68 22.9732 52.68C22.9751 52.68 22.9771 52.68 22.9791 52.68C22.981 52.68 22.983 52.68 22.985 52.68C22.9869 52.68 22.9889 52.68 22.9908 52.68C22.9928 52.68 22.9948 52.68 22.9967 52.68C22.9987 52.68 23.0007 52.68 23.0026 52.68C23.0046 52.68 23.0066 52.68 23.0085 52.68C23.0105 52.68 23.0125 52.68 23.0144 52.68C23.0164 52.68 23.0184 52.68 23.0203 52.68C23.0223 52.68 23.0243 52.68 23.0263 52.68C23.0282 52.68 23.0302 52.68 23.0322 52.68C23.0341 52.68 23.0361 52.68 23.0381 52.68C23.04 52.68 23.042 52.68 23.044 52.68C23.0459 52.68 23.0479 52.68 23.0499 52.68C23.0519 52.68 23.0538 52.68 23.0558 52.68C23.0578 52.68 23.0598 52.68 23.0617 52.68C23.0637 52.68 23.0657 52.68 23.0676 52.68C23.0696 52.68 23.0716 52.68 23.0736 52.68C23.0755 52.68 23.0775 52.68 23.0795 52.68C23.0815 52.68 23.0834 52.68 23.0854 52.68C23.0874 52.68 23.0894 52.68 23.0913 52.68C23.0933 52.68 23.0953 52.68 23.0973 52.68C23.0992 52.68 23.1012 52.68 23.1032 52.68C23.1052 52.68 23.1072 52.68 23.1091 52.68C23.1111 52.68 23.1131 52.68 23.1151 52.68C23.117 52.68 23.119 52.68 23.121 52.68C23.123 52.68 23.125 52.68 23.1269 52.68C23.1289 52.68 23.1309 52.68 23.1329 52.68C23.1349 52.68 23.1368 52.68 23.1388 52.68C23.1408 52.68 23.1428 52.68 23.1448 52.68C23.1467 52.68 23.1487 52.68 23.1507 52.68C23.1527 52.68 23.1547 52.68 23.1567 52.68C23.1586 52.68 23.1606 52.68 23.1626 52.68C23.1646 52.68 23.1666 52.68 23.1686 52.68C23.1705 52.68 23.1725 52.68 23.1745 52.68C23.1765 52.68 23.1785 52.68 23.1805 52.68C23.1825 52.68 23.1844 52.68 23.1864 52.68C23.1884 52.68 23.1904 52.68 23.1924 52.68C23.1944 52.68 23.1964 52.68 23.1984 52.68C23.2003 52.68 23.2023 52.68 23.2043 52.68C23.2063 52.68 23.2083 52.68 23.2103 52.68C23.2123 52.68 23.2143 52.68 23.2163 52.68C23.2182 52.68 23.2202 52.68 23.2222 52.68C23.2242 52.68 23.2262 52.68 23.2282 52.68C23.2302 52.68 23.2322 52.68 23.2342 52.68C23.2362 52.68 23.2381 52.68 23.2401 52.68C23.2421 52.68 23.2441 52.68 23.2461 52.68C23.2481 52.68 23.2501 52.68 23.2521 52.68C23.2541 52.68 23.2561 52.68 23.2581 52.68C23.2601 52.68 23.2621 52.68 23.2641 52.68C23.2661 52.68 23.2681 52.68 23.27 52.68C23.272 52.68 23.274 52.68 23.276 52.68C23.278 52.68 23.28 52.68 23.282 52.68C23.284 52.68 23.286 52.68 23.288 52.68C23.29 52.68 23.292 52.68 23.294 52.68C23.296 52.68 23.298 52.68 23.3 52.68C23.302 52.68 23.304 52.68 23.306 52.68C23.308 52.68 23.31 52.68 23.312 52.68C23.314 52.68 23.316 52.68 23.318 52.68C23.32 52.68 23.322 52.68 23.324 52.68C23.326 52.68 23.328 52.68 23.33 52.68C23.332 52.68 23.334 52.68 23.336 52.68C23.338 52.68 23.34 52.68 23.342 52.68C23.344 52.68 23.346 52.68 23.348 52.68C23.35 52.68 23.352 52.68 23.354 52.68C23.3561 52.68 23.3581 52.68 23.3601 52.68C23.3621 52.68 23.3641 52.68 23.3661 52.68C23.3681 52.68 23.3701 52.68 23.3721 52.68C23.3741 52.68 23.3761 52.68 23.3781 52.68C23.3801 52.68 23.3821 52.68 23.3841 52.68C23.3861 52.68 23.3882 52.68 23.3902 52.68C23.3922 52.68 23.3942 52.68 23.3962 52.68C23.3982 52.68 23.4002 52.68 23.4022 52.68C23.4042 52.68 23.4062 52.68 23.4083 52.68C23.4103 52.68 23.4123 52.68 23.4143 52.68C23.4163 52.68 23.4183 52.68 23.4203 52.68C23.4223 52.68 23.4243 52.68 23.4264 52.68C23.4284 52.68 23.4304 52.68 23.4324 52.68C23.4344 52.68 23.4364 52.68 23.4384 52.68C23.4404 52.68 23.4425 52.68 23.4445 52.68C23.4465 52.68 23.4485 52.68 23.4505 52.68C23.4525 52.68 23.4545 52.68 23.4566 52.68C23.4586 52.68 23.4606 52.68 23.4626 52.68C23.4646 52.68 23.4666 52.68 23.4687 52.68C23.4707 52.68 23.4727 52.68 23.4747 52.68C23.4767 52.68 23.4787 52.68 23.4808 52.68C23.4828 52.68 23.4848 52.68 23.4868 52.68C23.4888 52.68 23.4909 52.68 23.4929 52.68C23.4949 52.68 23.4969 52.68 23.4989 52.68C23.501 52.68 23.503 52.68 23.505 52.68C23.507 52.68 23.509 52.68 23.5111 52.68C23.5131 52.68 23.5151 52.68 23.5171 52.68C23.5192 52.68 23.5212 52.68 23.5232 52.68C23.5252 52.68 23.5272 52.68 23.5293 52.68C23.5313 52.68 23.5333 52.68 23.5353 52.68C23.5374 52.68 23.5394 52.68 23.5414 52.68C23.5434 52.68 23.5455 52.68 23.5475 52.68C23.5495 52.68 23.5515 52.68 23.5536 52.68C23.5556 52.68 23.5576 52.68 23.5596 52.68C23.5617 52.68 23.5637 52.68 23.5657 52.68C23.5678 52.68 23.5698 52.68 23.5718 52.68C23.5738 52.68 23.5759 52.68 23.5779 52.68C23.5799 52.68 23.5819 52.68 23.584 52.68C23.586 52.68 23.588 52.68 23.5901 52.68C23.5921 52.68 23.5941 52.68 23.5962 52.68C23.5982 52.68 23.6002 52.68 23.6023 52.68C23.6043 52.68 23.6063 52.68 23.6083 52.68C23.6104 52.68 23.6124 52.68 23.6144 52.68C23.6165 52.68 23.6185 52.68 23.6205 52.68C23.6226 52.68 23.6246 52.68 23.6266 52.68C23.6287 52.68 23.6307 52.68 23.6327 52.68C23.6348 52.68 23.6368 52.68 23.6388 52.68C23.6409 52.68 23.6429 52.68 23.645 52.68C23.647 52.68 23.649 52.68 23.6511 52.68C23.6531 52.68 23.6551 52.68 23.6572 52.68C23.6592 52.68 23.6612 52.68 23.6633 52.68C23.6653 52.68 23.6674 52.68 23.6694 52.68C23.6714 52.68 23.6735 52.68 23.6755 52.68C23.6776 52.68 23.6796 52.68 23.6816 52.68C23.6837 52.68 23.6857 52.68 23.6878 52.68C23.6898 52.68 23.6918 52.68 23.6939 52.68C23.6959 52.68 23.698 52.68 23.7 52.68C23.702 52.68 23.7041 52.68 23.7061 52.68C23.7082 52.68 23.7102 52.68 23.7123 52.68C23.7143 52.68 23.7163 52.68 23.7184 52.68C23.7204 52.68 23.7225 52.68 23.7245 52.68C23.7266 52.68 23.7286 52.68 23.7307 52.68C23.7327 52.68 23.7347 52.68 23.7368 52.68C23.7388 52.68 23.7409 52.68 23.7429 52.68C23.745 52.68 23.747 52.68 23.7491 52.68C23.7511 52.68 23.7532 52.68 23.7552 52.68C23.7573 52.68 23.7593 52.68 23.7613 52.68C23.7634 52.68 23.7654 52.68 23.7675 52.68C23.7695 52.68 23.7716 52.68 23.7736 52.68C23.7757 52.68 23.7777 52.68 23.7798 52.68C23.7818 52.68 23.7839 52.68 23.7859 52.68C23.788 52.68 23.79 52.68 23.7921 52.68C23.7941 52.68 23.7962 52.68 23.7983 52.68C23.8003 52.68 23.8024 52.68 23.8044 52.68C23.8065 52.68 23.8085 52.68 23.8106 52.68C23.8126 52.68 23.8147 52.68 23.8167 52.68C23.8188 52.68 23.8208 52.68 23.8229 52.68C23.8249 52.68 23.827 52.68 23.8291 52.68C23.8311 52.68 23.8332 52.68 23.8352 52.68C23.8373 52.68 23.8393 52.68 23.8414 52.68C23.8434 52.68 23.8455 52.68 23.8476 52.68C23.8496 52.68 23.8517 52.68 23.8537 52.68C23.8558 52.68 23.8579 52.68 23.8599 52.68C23.862 52.68 23.864 52.68 23.8661 52.68C23.8681 52.68 23.8702 52.68 23.8723 52.68C23.8743 52.68 23.8764 52.68 23.8784 52.68C23.8805 52.68 23.8826 52.68 23.8846 52.68C23.8867 52.68 23.8888 52.68 23.8908 52.68C23.8929 52.68 23.8949 52.68 23.897 52.68C23.8991 52.68 23.9011 52.68 23.9032 52.68C23.9053 52.68 23.9073 52.68 23.9094 52.68C23.9114 52.68 23.9135 52.68 23.9156 52.68C23.9176 52.68 23.9197 52.68 23.9218 52.68C23.9238 52.68 23.9259 52.68 23.928 52.68C23.93 52.68 23.9321 52.68 23.9342 52.68C23.9362 52.68 23.9383 52.68 23.9404 52.68C23.9424 52.68 23.9445 52.68 23.9466 52.68C23.9486 52.68 23.9507 52.68 23.9528 52.68C23.9548 52.68 23.9569 52.68 23.959 52.68C23.961 52.68 23.9631 52.68 23.9652 52.68C23.9673 52.68 23.9693 52.68 23.9714 52.68C23.9735 52.68 23.9755 52.68 23.9776 52.68C23.9797 52.68 23.9817 52.68 23.9838 52.68C23.9859 52.68 23.988 52.68 23.99 52.68C23.9921 52.68 23.9942 52.68 23.9963 52.68C23.9983 52.68 24.0004 52.68 24.0025 52.68C24.0045 52.68 24.0066 52.68 24.0087 52.68C24.0108 52.68 24.0128 52.68 24.0149 52.68C24.017 52.68 24.0191 52.68 24.0211 52.68C24.0232 52.68 24.0253 52.68 24.0274 52.68C24.0294 52.68 24.0315 52.68 24.0336 52.68C24.0357 52.68 24.0378 52.68 24.0398 52.68C24.0419 52.68 24.044 52.68 24.0461 52.68C24.0481 52.68 24.0502 52.68 24.0523 52.68C24.0544 52.68 24.0565 52.68 24.0585 52.68C24.0606 52.68 24.0627 52.68 24.0648 52.68C24.0669 52.68 24.0689 52.68 24.071 52.68C24.0731 52.68 24.0752 52.68 24.0773 52.68C24.0793 52.68 24.0814 52.68 24.0835 52.68C24.0856 52.68 24.0877 52.68 24.0898 52.68C24.0918 52.68 24.0939 52.68 24.096 52.68V48.68C24.0939 48.68 24.0918 48.68 24.0898 48.68C24.0877 48.68 24.0856 48.68 24.0835 48.68C24.0814 48.68 24.0793 48.68 24.0773 48.68C24.0752 48.68 24.0731 48.68 24.071 48.68C24.0689 48.68 24.0669 48.68 24.0648 48.68C24.0627 48.68 24.0606 48.68 24.0585 48.68C24.0565 48.68 24.0544 48.68 24.0523 48.68C24.0502 48.68 24.0481 48.68 24.0461 48.68C24.044 48.68 24.0419 48.68 24.0398 48.68C24.0378 48.68 24.0357 48.68 24.0336 48.68C24.0315 48.68 24.0294 48.68 24.0274 48.68C24.0253 48.68 24.0232 48.68 24.0211 48.68C24.0191 48.68 24.017 48.68 24.0149 48.68C24.0128 48.68 24.0108 48.68 24.0087 48.68C24.0066 48.68 24.0045 48.68 24.0025 48.68C24.0004 48.68 23.9983 48.68 23.9963 48.68C23.9942 48.68 23.9921 48.68 23.99 48.68C23.988 48.68 23.9859 48.68 23.9838 48.68C23.9817 48.68 23.9797 48.68 23.9776 48.68C23.9755 48.68 23.9735 48.68 23.9714 48.68C23.9693 48.68 23.9673 48.68 23.9652 48.68C23.9631 48.68 23.961 48.68 23.959 48.68C23.9569 48.68 23.9548 48.68 23.9528 48.68C23.9507 48.68 23.9486 48.68 23.9466 48.68C23.9445 48.68 23.9424 48.68 23.9404 48.68C23.9383 48.68 23.9362 48.68 23.9342 48.68C23.9321 48.68 23.93 48.68 23.928 48.68C23.9259 48.68 23.9238 48.68 23.9218 48.68C23.9197 48.68 23.9176 48.68 23.9156 48.68C23.9135 48.68 23.9114 48.68 23.9094 48.68C23.9073 48.68 23.9053 48.68 23.9032 48.68C23.9011 48.68 23.8991 48.68 23.897 48.68C23.8949 48.68 23.8929 48.68 23.8908 48.68C23.8888 48.68 23.8867 48.68 23.8846 48.68C23.8826 48.68 23.8805 48.68 23.8784 48.68C23.8764 48.68 23.8743 48.68 23.8723 48.68C23.8702 48.68 23.8681 48.68 23.8661 48.68C23.864 48.68 23.862 48.68 23.8599 48.68C23.8579 48.68 23.8558 48.68 23.8537 48.68C23.8517 48.68 23.8496 48.68 23.8476 48.68C23.8455 48.68 23.8434 48.68 23.8414 48.68C23.8393 48.68 23.8373 48.68 23.8352 48.68C23.8332 48.68 23.8311 48.68 23.8291 48.68C23.827 48.68 23.8249 48.68 23.8229 48.68C23.8208 48.68 23.8188 48.68 23.8167 48.68C23.8147 48.68 23.8126 48.68 23.8106 48.68C23.8085 48.68 23.8065 48.68 23.8044 48.68C23.8024 48.68 23.8003 48.68 23.7983 48.68C23.7962 48.68 23.7941 48.68 23.7921 48.68C23.79 48.68 23.788 48.68 23.7859 48.68C23.7839 48.68 23.7818 48.68 23.7798 48.68C23.7777 48.68 23.7757 48.68 23.7736 48.68C23.7716 48.68 23.7695 48.68 23.7675 48.68C23.7654 48.68 23.7634 48.68 23.7613 48.68C23.7593 48.68 23.7573 48.68 23.7552 48.68C23.7532 48.68 23.7511 48.68 23.7491 48.68C23.747 48.68 23.745 48.68 23.7429 48.68C23.7409 48.68 23.7388 48.68 23.7368 48.68C23.7347 48.68 23.7327 48.68 23.7307 48.68C23.7286 48.68 23.7266 48.68 23.7245 48.68C23.7225 48.68 23.7204 48.68 23.7184 48.68C23.7163 48.68 23.7143 48.68 23.7123 48.68C23.7102 48.68 23.7082 48.68 23.7061 48.68C23.7041 48.68 23.702 48.68 23.7 48.68C23.698 48.68 23.6959 48.68 23.6939 48.68C23.6918 48.68 23.6898 48.68 23.6878 48.68C23.6857 48.68 23.6837 48.68 23.6816 48.68C23.6796 48.68 23.6776 48.68 23.6755 48.68C23.6735 48.68 23.6714 48.68 23.6694 48.68C23.6674 48.68 23.6653 48.68 23.6633 48.68C23.6612 48.68 23.6592 48.68 23.6572 48.68C23.6551 48.68 23.6531 48.68 23.6511 48.68C23.649 48.68 23.647 48.68 23.645 48.68C23.6429 48.68 23.6409 48.68 23.6388 48.68C23.6368 48.68 23.6348 48.68 23.6327 48.68C23.6307 48.68 23.6287 48.68 23.6266 48.68C23.6246 48.68 23.6226 48.68 23.6205 48.68C23.6185 48.68 23.6165 48.68 23.6144 48.68C23.6124 48.68 23.6104 48.68 23.6083 48.68C23.6063 48.68 23.6043 48.68 23.6023 48.68C23.6002 48.68 23.5982 48.68 23.5962 48.68C23.5941 48.68 23.5921 48.68 23.5901 48.68C23.588 48.68 23.586 48.68 23.584 48.68C23.5819 48.68 23.5799 48.68 23.5779 48.68C23.5759 48.68 23.5738 48.68 23.5718 48.68C23.5698 48.68 23.5678 48.68 23.5657 48.68C23.5637 48.68 23.5617 48.68 23.5596 48.68C23.5576 48.68 23.5556 48.68 23.5536 48.68C23.5515 48.68 23.5495 48.68 23.5475 48.68C23.5455 48.68 23.5434 48.68 23.5414 48.68C23.5394 48.68 23.5374 48.68 23.5353 48.68C23.5333 48.68 23.5313 48.68 23.5293 48.68C23.5272 48.68 23.5252 48.68 23.5232 48.68C23.5212 48.68 23.5192 48.68 23.5171 48.68C23.5151 48.68 23.5131 48.68 23.5111 48.68C23.509 48.68 23.507 48.68 23.505 48.68C23.503 48.68 23.501 48.68 23.4989 48.68C23.4969 48.68 23.4949 48.68 23.4929 48.68C23.4909 48.68 23.4888 48.68 23.4868 48.68C23.4848 48.68 23.4828 48.68 23.4808 48.68C23.4787 48.68 23.4767 48.68 23.4747 48.68C23.4727 48.68 23.4707 48.68 23.4687 48.68C23.4666 48.68 23.4646 48.68 23.4626 48.68C23.4606 48.68 23.4586 48.68 23.4566 48.68C23.4545 48.68 23.4525 48.68 23.4505 48.68C23.4485 48.68 23.4465 48.68 23.4445 48.68C23.4425 48.68 23.4404 48.68 23.4384 48.68C23.4364 48.68 23.4344 48.68 23.4324 48.68C23.4304 48.68 23.4284 48.68 23.4264 48.68C23.4243 48.68 23.4223 48.68 23.4203 48.68C23.4183 48.68 23.4163 48.68 23.4143 48.68C23.4123 48.68 23.4103 48.68 23.4083 48.68C23.4062 48.68 23.4042 48.68 23.4022 48.68C23.4002 48.68 23.3982 48.68 23.3962 48.68C23.3942 48.68 23.3922 48.68 23.3902 48.68C23.3882 48.68 23.3861 48.68 23.3841 48.68C23.3821 48.68 23.3801 48.68 23.3781 48.68C23.3761 48.68 23.3741 48.68 23.3721 48.68C23.3701 48.68 23.3681 48.68 23.3661 48.68C23.3641 48.68 23.3621 48.68 23.3601 48.68C23.3581 48.68 23.3561 48.68 23.354 48.68C23.352 48.68 23.35 48.68 23.348 48.68C23.346 48.68 23.344 48.68 23.342 48.68C23.34 48.68 23.338 48.68 23.336 48.68C23.334 48.68 23.332 48.68 23.33 48.68C23.328 48.68 23.326 48.68 23.324 48.68C23.322 48.68 23.32 48.68 23.318 48.68C23.316 48.68 23.314 48.68 23.312 48.68C23.31 48.68 23.308 48.68 23.306 48.68C23.304 48.68 23.302 48.68 23.3 48.68C23.298 48.68 23.296 48.68 23.294 48.68C23.292 48.68 23.29 48.68 23.288 48.68C23.286 48.68 23.284 48.68 23.282 48.68C23.28 48.68 23.278 48.68 23.276 48.68C23.274 48.68 23.272 48.68 23.27 48.68C23.2681 48.68 23.2661 48.68 23.2641 48.68C23.2621 48.68 23.2601 48.68 23.2581 48.68C23.2561 48.68 23.2541 48.68 23.2521 48.68C23.2501 48.68 23.2481 48.68 23.2461 48.68C23.2441 48.68 23.2421 48.68 23.2401 48.68C23.2381 48.68 23.2362 48.68 23.2342 48.68C23.2322 48.68 23.2302 48.68 23.2282 48.68C23.2262 48.68 23.2242 48.68 23.2222 48.68C23.2202 48.68 23.2182 48.68 23.2163 48.68C23.2143 48.68 23.2123 48.68 23.2103 48.68C23.2083 48.68 23.2063 48.68 23.2043 48.68C23.2023 48.68 23.2003 48.68 23.1984 48.68C23.1964 48.68 23.1944 48.68 23.1924 48.68C23.1904 48.68 23.1884 48.68 23.1864 48.68C23.1844 48.68 23.1825 48.68 23.1805 48.68C23.1785 48.68 23.1765 48.68 23.1745 48.68C23.1725 48.68 23.1705 48.68 23.1686 48.68C23.1666 48.68 23.1646 48.68 23.1626 48.68C23.1606 48.68 23.1586 48.68 23.1567 48.68C23.1547 48.68 23.1527 48.68 23.1507 48.68C23.1487 48.68 23.1467 48.68 23.1448 48.68C23.1428 48.68 23.1408 48.68 23.1388 48.68C23.1368 48.68 23.1349 48.68 23.1329 48.68C23.1309 48.68 23.1289 48.68 23.1269 48.68C23.125 48.68 23.123 48.68 23.121 48.68C23.119 48.68 23.117 48.68 23.1151 48.68C23.1131 48.68 23.1111 48.68 23.1091 48.68C23.1072 48.68 23.1052 48.68 23.1032 48.68C23.1012 48.68 23.0992 48.68 23.0973 48.68C23.0953 48.68 23.0933 48.68 23.0913 48.68C23.0894 48.68 23.0874 48.68 23.0854 48.68C23.0834 48.68 23.0815 48.68 23.0795 48.68C23.0775 48.68 23.0755 48.68 23.0736 48.68C23.0716 48.68 23.0696 48.68 23.0676 48.68C23.0657 48.68 23.0637 48.68 23.0617 48.68C23.0598 48.68 23.0578 48.68 23.0558 48.68C23.0538 48.68 23.0519 48.68 23.0499 48.68C23.0479 48.68 23.0459 48.68 23.044 48.68C23.042 48.68 23.04 48.68 23.0381 48.68C23.0361 48.68 23.0341 48.68 23.0322 48.68C23.0302 48.68 23.0282 48.68 23.0263 48.68C23.0243 48.68 23.0223 48.68 23.0203 48.68C23.0184 48.68 23.0164 48.68 23.0144 48.68C23.0125 48.68 23.0105 48.68 23.0085 48.68C23.0066 48.68 23.0046 48.68 23.0026 48.68C23.0007 48.68 22.9987 48.68 22.9967 48.68C22.9948 48.68 22.9928 48.68 22.9908 48.68C22.9889 48.68 22.9869 48.68 22.985 48.68C22.983 48.68 22.981 48.68 22.9791 48.68C22.9771 48.68 22.9751 48.68 22.9732 48.68C22.9712 48.68 22.9692 48.68 22.9673 48.68C22.9653 48.68 22.9634 48.68 22.9614 48.68C22.9594 48.68 22.9575 48.68 22.9555 48.68C22.9536 48.68 22.9516 48.68 22.9496 48.68C22.9477 48.68 22.9457 48.68 22.9438 48.68C22.9418 48.68 22.9398 48.68 22.9379 48.68C22.9359 48.68 22.934 48.68 22.932 48.68C22.93 48.68 22.9281 48.68 22.9261 48.68C22.9242 48.68 22.9222 48.68 22.9203 48.68C22.9183 48.68 22.9163 48.68 22.9144 48.68C22.9124 48.68 22.9105 48.68 22.9085 48.68C22.9066 48.68 22.9046 48.68 22.9026 48.68C22.9007 48.68 22.8987 48.68 22.8968 48.68C22.8948 48.68 22.8929 48.68 22.8909 48.68C22.889 48.68 22.887 48.68 22.8851 48.68C22.8831 48.68 22.8812 48.68 22.8792 48.68C22.8773 48.68 22.8753 48.68 22.8733 48.68C22.8714 48.68 22.8694 48.68 22.8675 48.68C22.8655 48.68 22.8636 48.68 22.8616 48.68C22.8597 48.68 22.8577 48.68 22.8558 48.68C22.8538 48.68 22.8519 48.68 22.8499 48.68C22.848 48.68 22.846 48.68 22.8441 48.68C22.8421 48.68 22.8402 48.68 22.8383 48.68C22.8363 48.68 22.8344 48.68 22.8324 48.68C22.8305 48.68 22.8285 48.68 22.8266 48.68C22.8246 48.68 22.8227 48.68 22.8207 48.68C22.8188 48.68 22.8168 48.68 22.8149 48.68C22.8129 48.68 22.811 48.68 22.8091 48.68C22.8071 48.68 22.8052 48.68 22.8032 48.68C22.8013 48.68 22.7993 48.68 22.7974 48.68C22.7954 48.68 22.7935 48.68 22.7916 48.68C22.7896 48.68 22.7877 48.68 22.7857 48.68C22.7838 48.68 22.7819 48.68 22.7799 48.68C22.778 48.68 22.776 48.68 22.7741 48.68C22.7721 48.68 22.7702 48.68 22.7683 48.68C22.7663 48.68 22.7644 48.68 22.7624 48.68C22.7605 48.68 22.7586 48.68 22.7566 48.68C22.7547 48.68 22.7528 48.68 22.7508 48.68C22.7489 48.68 22.7469 48.68 22.745 48.68C22.7431 48.68 22.7411 48.68 22.7392 48.68C22.7373 48.68 22.7353 48.68 22.7334 48.68C22.7314 48.68 22.7295 48.68 22.7276 48.68C22.7256 48.68 22.7237 48.68 22.7218 48.68C22.7198 48.68 22.7179 48.68 22.716 48.68C22.714 48.68 22.7121 48.68 22.7102 48.68C22.7082 48.68 22.7063 48.68 22.7044 48.68C22.7024 48.68 22.7005 48.68 22.6986 48.68C22.6966 48.68 22.6947 48.68 22.6928 48.68C22.6908 48.68 22.6889 48.68 22.687 48.68C22.685 48.68 22.6831 48.68 22.6812 48.68C22.6793 48.68 22.6773 48.68 22.6754 48.68C22.6735 48.68 22.6715 48.68 22.6696 48.68C22.6677 48.68 22.6657 48.68 22.6638 48.68C22.6619 48.68 22.66 48.68 22.658 48.68C22.6561 48.68 22.6542 48.68 22.6523 48.68C22.6503 48.68 22.6484 48.68 22.6465 48.68C22.6445 48.68 22.6426 48.68 22.6407 48.68C22.6388 48.68 22.6368 48.68 22.6349 48.68C22.633 48.68 22.6311 48.68 22.6291 48.68C22.6272 48.68 22.6253 48.68 22.6234 48.68C22.6214 48.68 22.6195 48.68 22.6176 48.68C22.6157 48.68 22.6138 48.68 22.6118 48.68C22.6099 48.68 22.608 48.68 22.6061 48.68C22.6041 48.68 22.6022 48.68 22.6003 48.68C22.5984 48.68 22.5965 48.68 22.5945 48.68C22.5926 48.68 22.5907 48.68 22.5888 48.68C22.5869 48.68 22.5849 48.68 22.583 48.68C22.5811 48.68 22.5792 48.68 22.5773 48.68C22.5753 48.68 22.5734 48.68 22.5715 48.68C22.5696 48.68 22.5677 48.68 22.5658 48.68C22.5638 48.68 22.5619 48.68 22.56 48.68C22.5581 48.68 22.5562 48.68 22.5543 48.68C22.5523 48.68 22.5504 48.68 22.5485 48.68C22.5466 48.68 22.5447 48.68 22.5428 48.68C22.5408 48.68 22.5389 48.68 22.537 48.68C22.5351 48.68 22.5332 48.68 22.5313 48.68C22.5294 48.68 22.5274 48.68 22.5255 48.68C22.5236 48.68 22.5217 48.68 22.5198 48.68C22.5179 48.68 22.516 48.68 22.5141 48.68C22.5122 48.68 22.5102 48.68 22.5083 48.68C22.5064 48.68 22.5045 48.68 22.5026 48.68C22.5007 48.68 22.4988 48.68 22.4969 48.68C22.495 48.68 22.493 48.68 22.4911 48.68C22.4892 48.68 22.4873 48.68 22.4854 48.68C22.4835 48.68 22.4816 48.68 22.4797 48.68C22.4778 48.68 22.4759 48.68 22.474 48.68C22.4721 48.68 22.4702 48.68 22.4683 48.68C22.4663 48.68 22.4644 48.68 22.4625 48.68C22.4606 48.68 22.4587 48.68 22.4568 48.68C22.4549 48.68 22.453 48.68 22.4511 48.68C22.4492 48.68 22.4473 48.68 22.4454 48.68C22.4435 48.68 22.4416 48.68 22.4397 48.68C22.4378 48.68 22.4359 48.68 22.434 48.68C22.4321 48.68 22.4302 48.68 22.4283 48.68C22.4264 48.68 22.4245 48.68 22.4226 48.68C22.4207 48.68 22.4188 48.68 22.4169 48.68C22.415 48.68 22.4131 48.68 22.4112 48.68C22.4093 48.68 22.4074 48.68 22.4055 48.68C22.4036 48.68 22.4017 48.68 22.3998 48.68C22.3979 48.68 22.396 48.68 22.3941 48.68C22.3922 48.68 22.3903 48.68 22.3884 48.68C22.3865 48.68 22.3846 48.68 22.3827 48.68C22.3808 48.68 22.3789 48.68 22.377 48.68C22.3751 48.68 22.3732 48.68 22.3713 48.68C22.3694 48.68 22.3675 48.68 22.3656 48.68C22.3637 48.68 22.3618 48.68 22.3599 48.68C22.3581 48.68 22.3562 48.68 22.3543 48.68C22.3524 48.68 22.3505 48.68 22.3486 48.68C22.3467 48.68 22.3448 48.68 22.3429 48.68C22.341 48.68 22.3391 48.68 22.3372 48.68C22.3353 48.68 22.3335 48.68 22.3316 48.68C22.3297 48.68 22.3278 48.68 22.3259 48.68C22.324 48.68 22.3221 48.68 22.3202 48.68C22.3183 48.68 22.3164 48.68 22.3146 48.68C22.3127 48.68 22.3108 48.68 22.3089 48.68C22.307 48.68 22.3051 48.68 22.3032 48.68C22.3013 48.68 22.2995 48.68 22.2976 48.68C22.2957 48.68 22.2938 48.68 22.2919 48.68C22.29 48.68 22.2881 48.68 22.2863 48.68C22.2844 48.68 22.2825 48.68 22.2806 48.68C22.2787 48.68 22.2768 48.68 22.2749 48.68C22.2731 48.68 22.2712 48.68 22.2693 48.68C22.2674 48.68 22.2655 48.68 22.2636 48.68C22.2618 48.68 22.2599 48.68 22.258 48.68C22.2561 48.68 22.2542 48.68 22.2523 48.68C22.2505 48.68 22.2486 48.68 22.2467 48.68C22.2448 48.68 22.2429 48.68 22.2411 48.68C22.2392 48.68 22.2373 48.68 22.2354 48.68C22.2335 48.68 22.2317 48.68 22.2298 48.68C22.2279 48.68 22.226 48.68 22.2241 48.68C22.2223 48.68 22.2204 48.68 22.2185 48.68C22.2166 48.68 22.2148 48.68 22.2129 48.68C22.211 48.68 22.2091 48.68 22.2073 48.68C22.2054 48.68 22.2035 48.68 22.2016 48.68C22.1998 48.68 22.1979 48.68 22.196 48.68C22.1941 48.68 22.1923 48.68 22.1904 48.68C22.1885 48.68 22.1866 48.68 22.1848 48.68C22.1829 48.68 22.181 48.68 22.1791 48.68C22.1773 48.68 22.1754 48.68 22.1735 48.68C22.1716 48.68 22.1698 48.68 22.1679 48.68C22.166 48.68 22.1642 48.68 22.1623 48.68C22.1604 48.68 22.1585 48.68 22.1567 48.68C22.1548 48.68 22.1529 48.68 22.1511 48.68C22.1492 48.68 22.1473 48.68 22.1455 48.68C22.1436 48.68 22.1417 48.68 22.1398 48.68C22.138 48.68 22.1361 48.68 22.1342 48.68C22.1324 48.68 22.1305 48.68 22.1286 48.68C22.1268 48.68 22.1249 48.68 22.123 48.68C22.1212 48.68 22.1193 48.68 22.1174 48.68C22.1156 48.68 22.1137 48.68 22.1118 48.68C22.11 48.68 22.1081 48.68 22.1063 48.68C22.1044 48.68 22.1025 48.68 22.1007 48.68C22.0988 48.68 22.0969 48.68 22.0951 48.68C22.0932 48.68 22.0913 48.68 22.0895 48.68C22.0876 48.68 22.0858 48.68 22.0839 48.68C22.082 48.68 22.0802 48.68 22.0783 48.68C22.0764 48.68 22.0746 48.68 22.0727 48.68C22.0709 48.68 22.069 48.68 22.0671 48.68C22.0653 48.68 22.0634 48.68 22.0616 48.68C22.0597 48.68 22.0578 48.68 22.056 48.68C22.0541 48.68 22.0523 48.68 22.0504 48.68C22.0486 48.68 22.0467 48.68 22.0448 48.68C22.043 48.68 22.0411 48.68 22.0393 48.68C22.0374 48.68 22.0356 48.68 22.0337 48.68C22.0318 48.68 22.03 48.68 22.0281 48.68C22.0263 48.68 22.0244 48.68 22.0226 48.68C22.0207 48.68 22.0189 48.68 22.017 48.68C22.0151 48.68 22.0133 48.68 22.0114 48.68C22.0096 48.68 22.0077 48.68 22.0059 48.68C22.004 48.68 22.0022 48.68 22.0003 48.68C21.9985 48.68 21.9966 48.68 21.9948 48.68C21.9929 48.68 21.9911 48.68 21.9892 48.68C21.9874 48.68 21.9855 48.68 21.9837 48.68C21.9818 48.68 21.98 48.68 21.9781 48.68C21.9763 48.68 21.9744 48.68 21.9726 48.68C21.9707 48.68 21.9689 48.68 21.967 48.68C21.9652 48.68 21.9633 48.68 21.9615 48.68C21.9596 48.68 21.9578 48.68 21.9559 48.68C21.9541 48.68 21.9522 48.68 21.9504 48.68C21.9485 48.68 21.9467 48.68 21.9449 48.68C21.943 48.68 21.9412 48.68 21.9393 48.68C21.9375 48.68 21.9356 48.68 21.9338 48.68C21.9319 48.68 21.9301 48.68 21.9283 48.68C21.9264 48.68 21.9246 48.68 21.9227 48.68C21.9209 48.68 21.919 48.68 21.9172 48.68C21.9153 48.68 21.9135 48.68 21.9117 48.68C21.9098 48.68 21.908 48.68 21.9061 48.68C21.9043 48.68 21.9025 48.68 21.9006 48.68C21.8988 48.68 21.8969 48.68 21.8951 48.68C21.8933 48.68 21.8914 48.68 21.8896 48.68C21.8877 48.68 21.8859 48.68 21.8841 48.68C21.8822 48.68 21.8804 48.68 21.8785 48.68C21.8767 48.68 21.8749 48.68 21.873 48.68C21.8712 48.68 21.8694 48.68 21.8675 48.68C21.8657 48.68 21.8639 48.68 21.862 48.68C21.8602 48.68 21.8583 48.68 21.8565 48.68C21.8547 48.68 21.8528 48.68 21.851 48.68C21.8492 48.68 21.8473 48.68 21.8455 48.68C21.8437 48.68 21.8418 48.68 21.84 48.68C21.8382 48.68 21.8363 48.68 21.8345 48.68C21.8327 48.68 21.8308 48.68 21.829 48.68C21.8272 48.68 21.8253 48.68 21.8235 48.68C21.8217 48.68 21.8198 48.68 21.818 48.68C21.8162 48.68 21.8144 48.68 21.8125 48.68C21.8107 48.68 21.8089 48.68 21.807 48.68C21.8052 48.68 21.8034 48.68 21.8015 48.68C21.7997 48.68 21.7979 48.68 21.7961 48.68C21.7942 48.68 21.7924 48.68 21.7906 48.68C21.7888 48.68 21.7869 48.68 21.7851 48.68C21.7833 48.68 21.7814 48.68 21.7796 48.68C21.7778 48.68 21.776 48.68 21.7741 48.68C21.7723 48.68 21.7705 48.68 21.7687 48.68C21.7668 48.68 21.765 48.68 21.7632 48.68C21.7614 48.68 21.7595 48.68 21.7577 48.68C21.7559 48.68 21.7541 48.68 21.7523 48.68C21.7504 48.68 21.7486 48.68 21.7468 48.68C21.745 48.68 21.7431 48.68 21.7413 48.68C21.7395 48.68 21.7377 48.68 21.7359 48.68C21.734 48.68 21.7322 48.68 21.7304 48.68C21.7286 48.68 21.7268 48.68 21.7249 48.68C21.7231 48.68 21.7213 48.68 21.7195 48.68C21.7177 48.68 21.7158 48.68 21.714 48.68C21.7122 48.68 21.7104 48.68 21.7086 48.68C21.7067 48.68 21.7049 48.68 21.7031 48.68C21.7013 48.68 21.6995 48.68 21.6977 48.68C21.6958 48.68 21.694 48.68 21.6922 48.68C21.6904 48.68 21.6886 48.68 21.6868 48.68C21.685 48.68 21.6831 48.68 21.6813 48.68C21.6795 48.68 21.6777 48.68 21.6759 48.68C21.6741 48.68 21.6723 48.68 21.6704 48.68C21.6686 48.68 21.6668 48.68 21.665 48.68C21.6632 48.68 21.6614 48.68 21.6596 48.68C21.6578 48.68 21.6559 48.68 21.6541 48.68C21.6523 48.68 21.6505 48.68 21.6487 48.68C21.6469 48.68 21.6451 48.68 21.6433 48.68C21.6415 48.68 21.6396 48.68 21.6378 48.68C21.636 48.68 21.6342 48.68 21.6324 48.68C21.6306 48.68 21.6288 48.68 21.627 48.68C21.6252 48.68 21.6234 48.68 21.6216 48.68C21.6198 48.68 21.6179 48.68 21.6161 48.68C21.6143 48.68 21.6125 48.68 21.6107 48.68C21.6089 48.68 21.6071 48.68 21.6053 48.68C21.6035 48.68 21.6017 48.68 21.5999 48.68C21.5981 48.68 21.5963 48.68 21.5945 48.68C21.5927 48.68 21.5909 48.68 21.5891 48.68C21.5873 48.68 21.5855 48.68 21.5837 48.68C21.5819 48.68 21.5801 48.68 21.5783 48.68C21.5764 48.68 21.5746 48.68 21.5728 48.68C21.571 48.68 21.5692 48.68 21.5674 48.68C21.5656 48.68 21.5638 48.68 21.562 48.68C21.5602 48.68 21.5584 48.68 21.5566 48.68C21.5548 48.68 21.553 48.68 21.5512 48.68C21.5494 48.68 21.5476 48.68 21.5458 48.68C21.544 48.68 21.5423 48.68 21.5405 48.68C21.5387 48.68 21.5369 48.68 21.5351 48.68C21.5333 48.68 21.5315 48.68 21.5297 48.68C21.5279 48.68 21.5261 48.68 21.5243 48.68C21.5225 48.68 21.5207 48.68 21.5189 48.68C21.5171 48.68 21.5153 48.68 21.5135 48.68C21.5117 48.68 21.5099 48.68 21.5081 48.68C21.5063 48.68 21.5045 48.68 21.5028 48.68C21.501 48.68 21.4992 48.68 21.4974 48.68C21.4956 48.68 21.4938 48.68 21.492 48.68C21.4902 48.68 21.4884 48.68 21.4866 48.68C21.4848 48.68 21.483 48.68 21.4813 48.68C21.4795 48.68 21.4777 48.68 21.4759 48.68C21.4741 48.68 21.4723 48.68 21.4705 48.68C21.4687 48.68 21.4669 48.68 21.4651 48.68C21.4634 48.68 21.4616 48.68 21.4598 48.68C21.458 48.68 21.4562 48.68 21.4544 48.68C21.4526 48.68 21.4508 48.68 21.4491 48.68C21.4473 48.68 21.4455 48.68 21.4437 48.68C21.4419 48.68 21.4401 48.68 21.4383 48.68C21.4366 48.68 21.4348 48.68 21.433 48.68C21.4312 48.68 21.4294 48.68 21.4276 48.68C21.4259 48.68 21.4241 48.68 21.4223 48.68C21.4205 48.68 21.4187 48.68 21.4169 48.68C21.4152 48.68 21.4134 48.68 21.4116 48.68C21.4098 48.68 21.408 48.68 21.4063 48.68C21.4045 48.68 21.4027 48.68 21.4009 48.68C21.3991 48.68 21.3973 48.68 21.3956 48.68C21.3938 48.68 21.392 48.68 21.3902 48.68C21.3884 48.68 21.3867 48.68 21.3849 48.68C21.3831 48.68 21.3813 48.68 21.3796 48.68C21.3778 48.68 21.376 48.68 21.3742 48.68C21.3724 48.68 21.3707 48.68 21.3689 48.68C21.3671 48.68 21.3653 48.68 21.3636 48.68C21.3618 48.68 21.36 48.68 21.3582 48.68C21.3565 48.68 21.3547 48.68 21.3529 48.68C21.3511 48.68 21.3494 48.68 21.3476 48.68C21.3458 48.68 21.344 48.68 21.3423 48.68C21.3405 48.68 21.3387 48.68 21.3369 48.68C21.3352 48.68 21.3334 48.68 21.3316 48.68C21.3299 48.68 21.3281 48.68 21.3263 48.68C21.3245 48.68 21.3228 48.68 21.321 48.68C21.3192 48.68 21.3175 48.68 21.3157 48.68C21.3139 48.68 21.3121 48.68 21.3104 48.68C21.3086 48.68 21.3068 48.68 21.3051 48.68C21.3033 48.68 21.3015 48.68 21.2998 48.68C21.298 48.68 21.2962 48.68 21.2945 48.68C21.2927 48.68 21.2909 48.68 21.2892 48.68C21.2874 48.68 21.2856 48.68 21.2839 48.68C21.2821 48.68 21.2803 48.68 21.2786 48.68C21.2768 48.68 21.275 48.68 21.2733 48.68C21.2715 48.68 21.2697 48.68 21.268 48.68C21.2662 48.68 21.2644 48.68 21.2627 48.68C21.2609 48.68 21.2592 48.68 21.2574 48.68C21.2556 48.68 21.2539 48.68 21.2521 48.68C21.2503 48.68 21.2486 48.68 21.2468 48.68C21.2451 48.68 21.2433 48.68 21.2415 48.68C21.2398 48.68 21.238 48.68 21.2363 48.68C21.2345 48.68 21.2327 48.68 21.231 48.68C21.2292 48.68 21.2275 48.68 21.2257 48.68C21.2239 48.68 21.2222 48.68 21.2204 48.68C21.2187 48.68 21.2169 48.68 21.2151 48.68C21.2134 48.68 21.2116 48.68 21.2099 48.68C21.2081 48.68 21.2064 48.68 21.2046 48.68C21.2028 48.68 21.2011 48.68 21.1993 48.68C21.1976 48.68 21.1958 48.68 21.1941 48.68C21.1923 48.68 21.1906 48.68 21.1888 48.68C21.187 48.68 21.1853 48.68 21.1835 48.68C21.1818 48.68 21.18 48.68 21.1783 48.68C21.1765 48.68 21.1748 48.68 21.173 48.68C21.1713 48.68 21.1695 48.68 21.1678 48.68C21.166 48.68 21.1643 48.68 21.1625 48.68C21.1608 48.68 21.159 48.68 21.1573 48.68C21.1555 48.68 21.1538 48.68 21.152 48.68V52.68ZM24.1759 52.6784C25.2405 52.6358 26.3478 52.5932 27.498 52.5506L27.35 48.5534C26.1962 48.5961 25.0849 48.6388 24.0161 48.6816L24.1759 52.6784ZM27.498 52.5506C28.65 52.508 29.802 52.4653 30.954 52.4226L30.806 48.4254C29.654 48.468 28.502 48.5107 27.35 48.5534L27.498 52.5506ZM30.9514 52.4227C32.1773 52.3789 33.7165 52.292 35.5632 52.1631L35.2848 48.1728C33.4621 48.3 31.9721 48.3837 30.8086 48.4253L30.9514 52.4227ZM35.56 52.1634C37.4315 52.0358 39.7521 51.8867 42.5228 51.7162L42.2772 47.7238C39.5013 47.8946 37.1712 48.0442 35.288 48.1726L35.56 52.1634ZM40.4 49.72V58.36H44.4V49.72H40.4ZM58.7275 59V61H60.1332L60.6093 59.6774L58.7275 59ZM46.2475 59L44.377 58.2919L43.3518 61H46.2475V59ZM63.2075 14.2V12.2H61.8261L61.337 13.4919L63.2075 14.2ZM76.0075 14.2L77.878 13.4919L77.3889 12.2H76.0075V14.2ZM92.9675 59V61H95.8632L94.838 58.2919L92.9675 59ZM80.4875 59L78.6057 59.6774L79.0819 61H80.4875V59ZM77.6075 51L79.4893 50.3226L79.0132 49H77.6075V51ZM61.6075 51V49H60.2018L59.7257 50.3226L61.6075 51ZM64.4875 42.68L62.5942 42.0355L61.6939 44.68H64.4875V42.68ZM74.7275 42.68V44.68H77.5211L76.6208 42.0355L74.7275 42.68ZM69.6075 27.64L71.5008 26.9955L69.6075 21.4339L67.7142 26.9955L69.6075 27.64ZM58.7275 57H46.2475V61H58.7275V57ZM48.118 59.7081L65.078 14.9081L61.337 13.4919L44.377 58.2919L48.118 59.7081ZM63.2075 16.2H76.0075V12.2H63.2075V16.2ZM74.137 14.9081L91.097 59.7081L94.838 58.2919L77.878 13.4919L74.137 14.9081ZM92.9675 57H80.4875V61H92.9675V57ZM82.3693 58.3226L79.4893 50.3226L75.7257 51.6774L78.6057 59.6774L82.3693 58.3226ZM77.6075 49H61.6075V53H77.6075V49ZM59.7257 50.3226L56.8457 58.3226L60.6093 59.6774L63.4893 51.6774L59.7257 50.3226ZM64.4875 44.68H74.7275V40.68H64.4875V44.68ZM76.6208 42.0355L71.5008 26.9955L67.7142 28.2845L72.8342 43.3245L76.6208 42.0355ZM67.7142 26.9955L62.5942 42.0355L66.3808 43.3245L71.5008 28.2845L67.7142 26.9955ZM99.365 14.2V12.2H97.365V14.2H99.365ZM135.973 17.272L134.544 18.6712L134.559 18.6863L134.574 18.701L135.973 17.272ZM137.253 41.016L135.545 39.9761L135.536 39.9898L135.528 40.0036L137.253 41.016ZM131.685 44.92L131.2 42.9797L128.645 43.6184L129.946 45.908L131.685 44.92ZM139.685 59V61H143.122L141.424 58.012L139.685 59ZM127.205 59L125.451 59.9606L126.02 61H127.205V59ZM119.845 45.56L121.599 44.5994L121.03 43.56H119.845V45.56ZM110.885 45.56V43.56H108.885V45.56H110.885ZM110.885 59V61H112.885V59H110.885ZM99.365 59H97.365V61H99.365V59ZM110.885 23.16V21.16H108.885V23.16H110.885ZM110.885 36.6H108.885V38.6H110.885V36.6ZM99.365 16.2H126.245V12.2H99.365V16.2ZM126.245 16.2C130.482 16.2 133.081 17.1767 134.544 18.6712L137.402 15.8728C134.855 13.2713 130.968 12.2 126.245 12.2V16.2ZM134.574 18.701C136.068 20.1644 137.045 22.7626 137.045 27H141.045C141.045 22.2774 139.974 18.3902 137.372 15.843L134.574 18.701ZM137.045 27V32.76H141.045V27H137.045ZM137.045 32.76C137.045 36.1172 136.472 38.4528 135.545 39.9761L138.961 42.0559C140.424 39.6539 141.045 36.4855 141.045 32.76H137.045ZM135.528 40.0036C134.692 41.4286 133.329 42.4474 131.2 42.9797L132.17 46.8603C135.161 46.1126 137.51 44.5288 138.978 42.0284L135.528 40.0036ZM129.946 45.908L137.946 59.988L141.424 58.012L133.424 43.932L129.946 45.908ZM139.685 57H127.205V61H139.685V57ZM128.959 58.0394L121.599 44.5994L118.091 46.5206L125.451 59.9606L128.959 58.0394ZM119.845 43.56H110.885V47.56H119.845V43.56ZM108.885 45.56V59H112.885V45.56H108.885ZM110.885 57H99.365V61H110.885V57ZM101.365 59V14.2H97.365V59H101.365ZM129.525 27C129.525 25.4117 129.127 23.8531 127.979 22.7058C126.832 21.5584 125.273 21.16 123.685 21.16V25.16C124.657 25.16 125.018 25.4016 125.151 25.5342C125.283 25.6669 125.525 26.0283 125.525 27H129.525ZM123.685 21.16H110.885V25.16H123.685V21.16ZM108.885 23.16V36.6H112.885V23.16H108.885ZM110.885 38.6H123.685V34.6H110.885V38.6ZM123.685 38.6C125.273 38.6 126.832 38.2016 127.979 37.0542C129.127 35.9069 129.525 34.3483 129.525 32.76H125.525C125.525 33.7317 125.283 34.0931 125.151 34.2258C125.018 34.3584 124.657 34.6 123.685 34.6V38.6ZM129.525 32.76V27H125.525V32.76H129.525ZM144.788 59L142.949 58.2122L141.754 61H144.788V59ZM163.988 14.2V12.2H162.669L162.149 13.4122L163.988 14.2ZM174.868 14.2L176.715 14.9655L177.861 12.2H174.868V14.2ZM156.308 59V61H157.644L158.155 59.7655L156.308 59ZM146.626 59.7878L165.826 14.9878L162.149 13.4122L142.949 58.2122L146.626 59.7878ZM163.988 16.2H174.868V12.2H163.988V16.2ZM173.02 13.4345L154.46 58.2345L158.155 59.7655L176.715 14.9655L173.02 13.4345ZM156.308 57H144.788V61H156.308V57Z" fill="#5E1212" mask="url(#path-1-outside-1_833_272)"/>
</g>
<g filter="url(#filter1_dd_833_272)">
<mask id="path-3-outside-2_833_272" maskUnits="userSpaceOnUse" x="0" y="88" width="372" height="51" fill="black">
<rect fill="white" y="88" width="372" height="51"/>
<path d="M4 136L23.2 91.2H34.08L15.52 136H4ZM41.1025 91.2H67.9825C72.4625 91.2 75.7052 92.224 77.7105 94.272C79.7585 96.2773 80.7825 99.52 80.7825 104V109.76C80.7825 113.301 80.1852 116.053 78.9905 118.016C77.8385 119.979 75.9825 121.28 73.4225 121.92L81.4225 136H68.9425L61.5825 122.56H52.6225V136H41.1025V91.2ZM69.2625 104C69.2625 101.44 67.9825 100.16 65.4225 100.16H52.6225V113.6H65.4225C67.9825 113.6 69.2625 112.32 69.2625 109.76V104ZM119.165 103.36C119.165 100.8 117.885 99.52 115.325 99.52H104.445C101.885 99.52 100.605 100.8 100.605 103.36V123.84C100.605 126.4 101.885 127.68 104.445 127.68H115.325C117.885 127.68 119.165 126.4 119.165 123.84V103.36ZM130.685 123.84C130.685 128.32 129.661 131.584 127.613 133.632C125.608 135.637 122.365 136.64 117.885 136.64H101.885C97.405 136.64 94.141 135.637 92.093 133.632C90.0877 131.584 89.085 128.32 89.085 123.84V103.36C89.085 98.88 90.0877 95.6373 92.093 93.632C94.141 91.584 97.405 90.56 101.885 90.56H117.885C122.365 90.56 125.608 91.584 127.613 93.632C129.661 95.6373 130.685 98.88 130.685 103.36V123.84ZM174.235 100.16L151.835 127.04H174.235V136H137.755V127.04L160.155 100.16H137.755V91.2H174.235V100.16ZM220.978 135.04C210.994 136.107 201.82 136.64 193.458 136.64C189.276 136.64 186.204 135.659 184.242 133.696C182.279 131.733 181.298 128.661 181.298 124.48V104C181.298 99.52 182.3 96.2773 184.306 94.272C186.354 92.224 189.618 91.2 194.098 91.2H217.138V100.16H196.658C194.098 100.16 192.818 101.44 192.818 104V124.48C192.818 125.461 193.095 126.251 193.65 126.848C194.247 127.403 195.036 127.68 196.018 127.68C200.924 127.68 205.404 127.573 209.458 127.36V118.08H201.138V110.4H220.978V135.04ZM238.59 136H226.11L243.07 91.2H255.87L272.83 136H260.35L257.47 128H241.47L238.59 136ZM244.35 119.68H254.59L249.47 104.64L244.35 119.68ZM287.228 136H274.748L291.708 91.2H304.508L321.468 136H308.988L306.108 128H290.108L287.228 136ZM292.988 119.68H303.228L298.108 104.64L292.988 119.68ZM327.865 91.2H354.745C359.225 91.2 362.468 92.224 364.473 94.272C366.521 96.2773 367.545 99.52 367.545 104V109.76C367.545 113.301 366.948 116.053 365.753 118.016C364.601 119.979 362.745 121.28 360.185 121.92L368.185 136H355.705L348.345 122.56H339.385V136H327.865V91.2ZM356.025 104C356.025 101.44 354.745 100.16 352.185 100.16H339.385V113.6H352.185C354.745 113.6 356.025 112.32 356.025 109.76V104Z"/>
</mask>
<path d="M4 136L23.2 91.2H34.08L15.52 136H4ZM41.1025 91.2H67.9825C72.4625 91.2 75.7052 92.224 77.7105 94.272C79.7585 96.2773 80.7825 99.52 80.7825 104V109.76C80.7825 113.301 80.1852 116.053 78.9905 118.016C77.8385 119.979 75.9825 121.28 73.4225 121.92L81.4225 136H68.9425L61.5825 122.56H52.6225V136H41.1025V91.2ZM69.2625 104C69.2625 101.44 67.9825 100.16 65.4225 100.16H52.6225V113.6H65.4225C67.9825 113.6 69.2625 112.32 69.2625 109.76V104ZM119.165 103.36C119.165 100.8 117.885 99.52 115.325 99.52H104.445C101.885 99.52 100.605 100.8 100.605 103.36V123.84C100.605 126.4 101.885 127.68 104.445 127.68H115.325C117.885 127.68 119.165 126.4 119.165 123.84V103.36ZM130.685 123.84C130.685 128.32 129.661 131.584 127.613 133.632C125.608 135.637 122.365 136.64 117.885 136.64H101.885C97.405 136.64 94.141 135.637 92.093 133.632C90.0877 131.584 89.085 128.32 89.085 123.84V103.36C89.085 98.88 90.0877 95.6373 92.093 93.632C94.141 91.584 97.405 90.56 101.885 90.56H117.885C122.365 90.56 125.608 91.584 127.613 93.632C129.661 95.6373 130.685 98.88 130.685 103.36V123.84ZM174.235 100.16L151.835 127.04H174.235V136H137.755V127.04L160.155 100.16H137.755V91.2H174.235V100.16ZM220.978 135.04C210.994 136.107 201.82 136.64 193.458 136.64C189.276 136.64 186.204 135.659 184.242 133.696C182.279 131.733 181.298 128.661 181.298 124.48V104C181.298 99.52 182.3 96.2773 184.306 94.272C186.354 92.224 189.618 91.2 194.098 91.2H217.138V100.16H196.658C194.098 100.16 192.818 101.44 192.818 104V124.48C192.818 125.461 193.095 126.251 193.65 126.848C194.247 127.403 195.036 127.68 196.018 127.68C200.924 127.68 205.404 127.573 209.458 127.36V118.08H201.138V110.4H220.978V135.04ZM238.59 136H226.11L243.07 91.2H255.87L272.83 136H260.35L257.47 128H241.47L238.59 136ZM244.35 119.68H254.59L249.47 104.64L244.35 119.68ZM287.228 136H274.748L291.708 91.2H304.508L321.468 136H308.988L306.108 128H290.108L287.228 136ZM292.988 119.68H303.228L298.108 104.64L292.988 119.68ZM327.865 91.2H354.745C359.225 91.2 362.468 92.224 364.473 94.272C366.521 96.2773 367.545 99.52 367.545 104V109.76C367.545 113.301 366.948 116.053 365.753 118.016C364.601 119.979 362.745 121.28 360.185 121.92L368.185 136H355.705L348.345 122.56H339.385V136H327.865V91.2ZM356.025 104C356.025 101.44 354.745 100.16 352.185 100.16H339.385V113.6H352.185C354.745 113.6 356.025 112.32 356.025 109.76V104Z" fill="#5E1212"/>
<path d="M4 136L2.16171 135.212L0.966922 138H4V136ZM23.2 91.2V89.2H21.8812L21.3617 90.4122L23.2 91.2ZM34.08 91.2L35.9277 91.9655L37.0734 89.2H34.08V91.2ZM15.52 136V138H16.8563L17.3677 136.765L15.52 136ZM5.83829 136.788L25.0383 91.9878L21.3617 90.4122L2.16171 135.212L5.83829 136.788ZM23.2 93.2H34.08V89.2H23.2V93.2ZM32.2323 90.4345L13.6723 135.235L17.3677 136.765L35.9277 91.9655L32.2323 90.4345ZM15.52 134H4V138H15.52V134ZM41.1025 91.2V89.2H39.1025V91.2H41.1025ZM77.7105 94.272L76.2815 95.6712L76.2962 95.6863L76.3113 95.701L77.7105 94.272ZM78.9905 118.016L77.2821 116.976L77.2738 116.99L77.2657 117.004L78.9905 118.016ZM73.4225 121.92L72.9374 119.98L70.3827 120.618L71.6836 122.908L73.4225 121.92ZM81.4225 136V138H84.8592L83.1614 135.012L81.4225 136ZM68.9425 136L67.1883 136.961L67.7575 138H68.9425V136ZM61.5825 122.56L63.3367 121.599L62.7675 120.56H61.5825V122.56ZM52.6225 122.56V120.56H50.6225V122.56H52.6225ZM52.6225 136V138H54.6225V136H52.6225ZM41.1025 136H39.1025V138H41.1025V136ZM52.6225 100.16V98.16H50.6225V100.16H52.6225ZM52.6225 113.6H50.6225V115.6H52.6225V113.6ZM41.1025 93.2H67.9825V89.2H41.1025V93.2ZM67.9825 93.2C72.2199 93.2 74.8181 94.1767 76.2815 95.6712L79.1395 92.8728C76.5923 90.2713 72.7051 89.2 67.9825 89.2V93.2ZM76.3113 95.701C77.8058 97.1644 78.7825 99.7626 78.7825 104H82.7825C82.7825 99.2774 81.7112 95.3902 79.1098 92.843L76.3113 95.701ZM78.7825 104V109.76H82.7825V104H78.7825ZM78.7825 109.76C78.7825 113.117 78.2093 115.453 77.2821 116.976L80.6989 119.056C82.161 116.654 82.7825 113.485 82.7825 109.76H78.7825ZM77.2657 117.004C76.4293 118.429 75.0665 119.447 72.9374 119.98L73.9076 123.86C76.8985 123.113 79.2477 121.529 80.7153 119.028L77.2657 117.004ZM71.6836 122.908L79.6836 136.988L83.1614 135.012L75.1614 120.932L71.6836 122.908ZM81.4225 134H68.9425V138H81.4225V134ZM70.6967 135.039L63.3367 121.599L59.8283 123.521L67.1883 136.961L70.6967 135.039ZM61.5825 120.56H52.6225V124.56H61.5825V120.56ZM50.6225 122.56V136H54.6225V122.56H50.6225ZM52.6225 134H41.1025V138H52.6225V134ZM43.1025 136V91.2H39.1025V136H43.1025ZM71.2625 104C71.2625 102.412 70.8641 100.853 69.7167 99.7058C68.5694 98.5584 67.0108 98.16 65.4225 98.16V102.16C66.3942 102.16 66.7556 102.402 66.8883 102.534C67.0209 102.667 67.2625 103.028 67.2625 104H71.2625ZM65.4225 98.16H52.6225V102.16H65.4225V98.16ZM50.6225 100.16V113.6H54.6225V100.16H50.6225ZM52.6225 115.6H65.4225V111.6H52.6225V115.6ZM65.4225 115.6C67.0108 115.6 68.5694 115.202 69.7167 114.054C70.8641 112.907 71.2625 111.348 71.2625 109.76H67.2625C67.2625 110.732 67.0209 111.093 66.8883 111.226C66.7556 111.358 66.3942 111.6 65.4225 111.6V115.6ZM71.2625 109.76V104H67.2625V109.76H71.2625ZM127.613 133.632L126.199 132.218L126.199 132.218L127.613 133.632ZM92.093 133.632L90.664 135.031L90.6787 135.046L90.6938 135.061L92.093 133.632ZM92.093 93.632L90.6788 92.2178L90.6788 92.2178L92.093 93.632ZM127.613 93.632L126.184 95.0312L126.199 95.0463L126.214 95.061L127.613 93.632ZM121.165 103.36C121.165 101.772 120.767 100.213 119.619 99.0658C118.472 97.9184 116.913 97.52 115.325 97.52V101.52C116.297 101.52 116.658 101.762 116.791 101.894C116.923 102.027 117.165 102.388 117.165 103.36H121.165ZM115.325 97.52H104.445V101.52H115.325V97.52ZM104.445 97.52C102.857 97.52 101.298 97.9184 100.151 99.0658C99.0034 100.213 98.605 101.772 98.605 103.36H102.605C102.605 102.388 102.847 102.027 102.979 101.894C103.112 101.762 103.473 101.52 104.445 101.52V97.52ZM98.605 103.36V123.84H102.605V103.36H98.605ZM98.605 123.84C98.605 125.428 99.0034 126.987 100.151 128.134C101.298 129.282 102.857 129.68 104.445 129.68V125.68C103.473 125.68 103.112 125.438 102.979 125.306C102.847 125.173 102.605 124.812 102.605 123.84H98.605ZM104.445 129.68H115.325V125.68H104.445V129.68ZM115.325 129.68C116.913 129.68 118.472 129.282 119.619 128.134C120.767 126.987 121.165 125.428 121.165 123.84H117.165C117.165 124.812 116.923 125.173 116.791 125.306C116.658 125.438 116.297 125.68 115.325 125.68V129.68ZM121.165 123.84V103.36H117.165V123.84H121.165ZM128.685 123.84C128.685 128.073 127.71 130.706 126.199 132.218L129.027 135.046C131.612 132.462 132.685 128.567 132.685 123.84H128.685ZM126.199 132.218C124.736 133.68 122.132 134.64 117.885 134.64V138.64C122.598 138.64 126.479 137.595 129.027 135.046L126.199 132.218ZM117.885 134.64H101.885V138.64H117.885V134.64ZM101.885 134.64C97.6428 134.64 95.0029 133.682 93.4923 132.203L90.6938 135.061C93.2791 137.593 97.1672 138.64 101.885 138.64V134.64ZM93.522 132.233C92.0429 130.722 91.085 128.082 91.085 123.84H87.085C87.085 128.558 88.1325 132.446 90.664 135.031L93.522 132.233ZM91.085 123.84V103.36H87.085V123.84H91.085ZM91.085 103.36C91.085 99.1129 92.0449 96.5085 93.5072 95.0462L90.6788 92.2178C88.1304 94.7661 87.085 98.6471 87.085 103.36H91.085ZM93.5072 95.0462C95.0187 93.5347 97.6524 92.56 101.885 92.56V88.56C97.1576 88.56 93.2633 89.6333 90.6788 92.2178L93.5072 95.0462ZM101.885 92.56H117.885V88.56H101.885V92.56ZM117.885 92.56C122.122 92.56 124.721 93.5367 126.184 95.0312L129.042 92.2327C126.495 89.6313 122.608 88.56 117.885 88.56V92.56ZM126.214 95.061C127.708 96.5244 128.685 99.1226 128.685 103.36H132.685C132.685 98.6374 131.614 94.7502 129.012 92.203L126.214 95.061ZM128.685 103.36V123.84H132.685V103.36H128.685ZM174.235 100.16L175.771 101.44L176.235 100.884V100.16H174.235ZM151.835 127.04L150.299 125.76L147.565 129.04H151.835V127.04ZM174.235 127.04H176.235V125.04H174.235V127.04ZM174.235 136V138H176.235V136H174.235ZM137.755 136H135.755V138H137.755V136ZM137.755 127.04L136.219 125.76L135.755 126.316V127.04H137.755ZM160.155 100.16L161.691 101.44L164.425 98.16H160.155V100.16ZM137.755 100.16H135.755V102.16H137.755V100.16ZM137.755 91.2V89.2H135.755V91.2H137.755ZM174.235 91.2H176.235V89.2H174.235V91.2ZM172.699 98.8796L150.299 125.76L153.371 128.32L175.771 101.44L172.699 98.8796ZM151.835 129.04H174.235V125.04H151.835V129.04ZM172.235 127.04V136H176.235V127.04H172.235ZM174.235 134H137.755V138H174.235V134ZM139.755 136V127.04H135.755V136H139.755ZM139.291 128.32L161.691 101.44L158.619 98.8796L136.219 125.76L139.291 128.32ZM160.155 98.16H137.755V102.16H160.155V98.16ZM139.755 100.16V91.2H135.755V100.16H139.755ZM137.755 93.2H174.235V89.2H137.755V93.2ZM172.235 91.2V100.16H176.235V91.2H172.235ZM220.978 135.04L221.19 137.029L222.978 136.838V135.04H220.978ZM184.242 133.696L185.656 132.282L185.656 132.282L184.242 133.696ZM184.306 94.272L185.72 95.6862L185.72 95.6862L184.306 94.272ZM217.138 91.2H219.138V89.2H217.138V91.2ZM217.138 100.16V102.16H219.138V100.16H217.138ZM193.65 126.848L192.184 128.209L192.234 128.263L192.289 128.314L193.65 126.848ZM209.458 127.36L209.563 129.357L211.458 129.258V127.36H209.458ZM209.458 118.08H211.458V116.08H209.458V118.08ZM201.138 118.08H199.138V120.08H201.138V118.08ZM201.138 110.4V108.4H199.138V110.4H201.138ZM220.978 110.4H222.978V108.4H220.978V110.4ZM220.765 133.051C210.838 134.112 201.737 134.64 193.458 134.64V138.64C201.904 138.64 211.149 138.101 221.19 137.029L220.765 133.051ZM193.458 134.64C189.542 134.64 187.09 133.716 185.656 132.282L182.827 135.11C185.318 137.601 189.011 138.64 193.458 138.64V134.64ZM185.656 132.282C184.221 130.847 183.298 128.396 183.298 124.48H179.298C179.298 128.927 180.336 132.619 182.827 135.11L185.656 132.282ZM183.298 124.48V104H179.298V124.48H183.298ZM183.298 104C183.298 99.7529 184.257 97.1485 185.72 95.6862L182.891 92.8578C180.343 95.4061 179.298 99.2871 179.298 104H183.298ZM185.72 95.6862C187.231 94.1747 189.865 93.2 194.098 93.2V89.2C189.37 89.2 185.476 90.2733 182.891 92.8578L185.72 95.6862ZM194.098 93.2H217.138V89.2H194.098V93.2ZM215.138 91.2V100.16H219.138V91.2H215.138ZM217.138 98.16H196.658V102.16H217.138V98.16ZM196.658 98.16C195.069 98.16 193.511 98.5584 192.363 99.7058C191.216 100.853 190.818 102.412 190.818 104H194.818C194.818 103.028 195.059 102.667 195.192 102.534C195.324 102.402 195.686 102.16 196.658 102.16V98.16ZM190.818 104V124.48H194.818V104H190.818ZM190.818 124.48C190.818 125.857 191.218 127.169 192.184 128.209L195.115 125.487C194.971 125.332 194.818 125.065 194.818 124.48H190.818ZM192.289 128.314C193.329 129.279 194.64 129.68 196.018 129.68V125.68C195.432 125.68 195.165 125.526 195.01 125.382L192.289 128.314ZM196.018 129.68C200.952 129.68 205.468 129.573 209.563 129.357L209.352 125.363C205.34 125.574 200.896 125.68 196.018 125.68V129.68ZM211.458 127.36V118.08H207.458V127.36H211.458ZM209.458 116.08H201.138V120.08H209.458V116.08ZM203.138 118.08V110.4H199.138V118.08H203.138ZM201.138 112.4H220.978V108.4H201.138V112.4ZM218.978 110.4V135.04H222.978V110.4H218.978ZM238.59 136V138H239.996L240.472 136.677L238.59 136ZM226.11 136L224.24 135.292L223.214 138H226.11V136ZM243.07 91.2V89.2H241.689L241.2 90.4919L243.07 91.2ZM255.87 91.2L257.74 90.4919L257.251 89.2H255.87V91.2ZM272.83 136V138H275.726L274.7 135.292L272.83 136ZM260.35 136L258.468 136.677L258.944 138H260.35V136ZM257.47 128L259.352 127.323L258.876 126H257.47V128ZM241.47 128V126H240.064L239.588 127.323L241.47 128ZM244.35 119.68L242.457 119.035L241.556 121.68H244.35V119.68ZM254.59 119.68V121.68H257.384L256.483 119.035L254.59 119.68ZM249.47 104.64L251.363 103.995L249.47 98.4339L247.577 103.995L249.47 104.64ZM238.59 134H226.11V138H238.59V134ZM227.98 136.708L244.94 91.9081L241.2 90.4919L224.24 135.292L227.98 136.708ZM243.07 93.2H255.87V89.2H243.07V93.2ZM254 91.9081L270.96 136.708L274.7 135.292L257.74 90.4919L254 91.9081ZM272.83 134H260.35V138H272.83V134ZM262.232 135.323L259.352 127.323L255.588 128.677L258.468 136.677L262.232 135.323ZM257.47 126H241.47V130H257.47V126ZM239.588 127.323L236.708 135.323L240.472 136.677L243.352 128.677L239.588 127.323ZM244.35 121.68H254.59V117.68H244.35V121.68ZM256.483 119.035L251.363 103.995L247.577 105.285L252.697 120.325L256.483 119.035ZM247.577 103.995L242.457 119.035L246.243 120.325L251.363 105.285L247.577 103.995ZM287.228 136V138H288.633L289.109 136.677L287.228 136ZM274.748 136L272.877 135.292L271.852 138H274.748V136ZM291.708 91.2V89.2H290.326L289.837 90.4919L291.708 91.2ZM304.508 91.2L306.378 90.4919L305.889 89.2H304.508V91.2ZM321.468 136V138H324.363L323.338 135.292L321.468 136ZM308.988 136L307.106 136.677L307.582 138H308.988V136ZM306.108 128L307.989 127.323L307.513 126H306.108V128ZM290.108 128V126H288.702L288.226 127.323L290.108 128ZM292.988 119.68L291.094 119.035L290.194 121.68H292.988V119.68ZM303.228 119.68V121.68H306.021L305.121 119.035L303.228 119.68ZM298.108 104.64L300.001 103.995L298.108 98.4339L296.214 103.995L298.108 104.64ZM287.228 134H274.748V138H287.228V134ZM276.618 136.708L293.578 91.9081L289.837 90.4919L272.877 135.292L276.618 136.708ZM291.708 93.2H304.508V89.2H291.708V93.2ZM302.637 91.9081L319.597 136.708L323.338 135.292L306.378 90.4919L302.637 91.9081ZM321.468 134H308.988V138H321.468V134ZM310.869 135.323L307.989 127.323L304.226 128.677L307.106 136.677L310.869 135.323ZM306.108 126H290.108V130H306.108V126ZM288.226 127.323L285.346 135.323L289.109 136.677L291.989 128.677L288.226 127.323ZM292.988 121.68H303.228V117.68H292.988V121.68ZM305.121 119.035L300.001 103.995L296.214 105.285L301.334 120.325L305.121 119.035ZM296.214 103.995L291.094 119.035L294.881 120.325L300.001 105.285L296.214 103.995ZM327.865 91.2V89.2H325.865V91.2H327.865ZM364.473 94.272L363.044 95.6712L363.059 95.6863L363.074 95.701L364.473 94.272ZM365.753 118.016L364.045 116.976L364.036 116.99L364.028 117.004L365.753 118.016ZM360.185 121.92L359.7 119.98L357.145 120.618L358.446 122.908L360.185 121.92ZM368.185 136V138H371.622L369.924 135.012L368.185 136ZM355.705 136L353.951 136.961L354.52 138H355.705V136ZM348.345 122.56L350.099 121.599L349.53 120.56H348.345V122.56ZM339.385 122.56V120.56H337.385V122.56H339.385ZM339.385 136V138H341.385V136H339.385ZM327.865 136H325.865V138H327.865V136ZM339.385 100.16V98.16H337.385V100.16H339.385ZM339.385 113.6H337.385V115.6H339.385V113.6ZM327.865 93.2H354.745V89.2H327.865V93.2ZM354.745 93.2C358.982 93.2 361.581 94.1767 363.044 95.6712L365.902 92.8728C363.355 90.2713 359.468 89.2 354.745 89.2V93.2ZM363.074 95.701C364.568 97.1644 365.545 99.7626 365.545 104H369.545C369.545 99.2774 368.474 95.3902 365.872 92.843L363.074 95.701ZM365.545 104V109.76H369.545V104H365.545ZM365.545 109.76C365.545 113.117 364.972 115.453 364.045 116.976L367.461 119.056C368.924 116.654 369.545 113.485 369.545 109.76H365.545ZM364.028 117.004C363.192 118.429 361.829 119.447 359.7 119.98L360.67 123.86C363.661 123.113 366.01 121.529 367.478 119.028L364.028 117.004ZM358.446 122.908L366.446 136.988L369.924 135.012L361.924 120.932L358.446 122.908ZM368.185 134H355.705V138H368.185V134ZM357.459 135.039L350.099 121.599L346.591 123.521L353.951 136.961L357.459 135.039ZM348.345 120.56H339.385V124.56H348.345V120.56ZM337.385 122.56V136H341.385V122.56H337.385ZM339.385 134H327.865V138H339.385V134ZM329.865 136V91.2H325.865V136H329.865ZM358.025 104C358.025 102.412 357.627 100.853 356.479 99.7058C355.332 98.5584 353.773 98.16 352.185 98.16V102.16C353.157 102.16 353.518 102.402 353.651 102.534C353.783 102.667 354.025 103.028 354.025 104H358.025ZM352.185 98.16H339.385V102.16H352.185V98.16ZM337.385 100.16V113.6H341.385V100.16H337.385ZM339.385 115.6H352.185V111.6H339.385V115.6ZM352.185 115.6C353.773 115.6 355.332 115.202 356.479 114.054C357.627 112.907 358.025 111.348 358.025 109.76H354.025C354.025 110.732 353.783 111.093 353.651 111.226C353.518 111.358 353.157 111.6 352.185 111.6V115.6ZM358.025 109.76V104H354.025V109.76H358.025Z" fill="#F75757" mask="url(#path-3-outside-2_833_272)"/>
</g>
<defs>
<filter id="filter0_dd_833_272" x="2.56006" y="14.2" width="176.307" height="53.44" filterUnits="userSpaceOnUse" color-interpolation-filters="sRGB">
<feFlood flood-opacity="0" result="BackgroundImageFix"/>
<feColorMatrix in="SourceAlpha" type="matrix" values="0 0 0 0 0 0 0 0 0 0 0 0 0 0 0 0 0 0 127 0" result="hardAlpha"/>
<feOffset dy="4"/>
<feGaussianBlur stdDeviation="2"/>
<feComposite in2="hardAlpha" operator="out"/>
<feColorMatrix type="matrix" values="0 0 0 0 0 0 0 0 0 0 0 0 0 0 0 0 0 0 0.25 0"/>
<feBlend mode="normal" in2="BackgroundImageFix" result="effect1_dropShadow_833_272"/>
<feColorMatrix in="SourceAlpha" type="matrix" values="0 0 0 0 0 0 0 0 0 0 0 0 0 0 0 0 0 0 127 0" result="hardAlpha"/>
<feOffset dy="4"/>
<feGaussianBlur stdDeviation="2"/>
<feComposite in2="hardAlpha" operator="out"/>
<feColorMatrix type="matrix" values="0 0 0 0 0 0 0 0 0 0 0 0 0 0 0 0 0 0 0.25 0"/>
<feBlend mode="normal" in2="effect1_dropShadow_833_272" result="effect2_dropShadow_833_272"/>
<feBlend mode="normal" in="SourceGraphic" in2="effect2_dropShadow_833_272" result="shape"/>
</filter>
<filter id="filter1_dd_833_272" x="0" y="90.56" width="372.185" height="54.08" filterUnits="userSpaceOnUse" color-interpolation-filters="sRGB">
<feFlood flood-opacity="0" result="BackgroundImageFix"/>
<feColorMatrix in="SourceAlpha" type="matrix" values="0 0 0 0 0 0 0 0 0 0 0 0 0 0 0 0 0 0 127 0" result="hardAlpha"/>
<feOffset dy="4"/>
<feGaussianBlur stdDeviation="2"/>
<feComposite in2="hardAlpha" operator="out"/>
<feColorMatrix type="matrix" values="0 0 0 0 0 0 0 0 0 0 0 0 0 0 0 0 0 0 0.25 0"/>
<feBlend mode="normal" in2="BackgroundImageFix" result="effect1_dropShadow_833_272"/>
<feColorMatrix in="SourceAlpha" type="matrix" values="0 0 0 0 0 0 0 0 0 0 0 0 0 0 0 0 0 0 127 0" result="hardAlpha"/>
<feOffset dy="4"/>
<feGaussianBlur stdDeviation="2"/>
<feComposite in2="hardAlpha" operator="out"/>
<feColorMatrix type="matrix" values="0 0 0 0 0 0 0 0 0 0 0 0 0 0 0 0 0 0 0.25 0"/>
<feBlend mode="normal" in2="effect1_dropShadow_833_272" result="effect2_dropShadow_833_272"/>
<feBlend mode="normal" in="SourceGraphic" in2="effect2_dropShadow_833_272" result="shape"/>
</filter>
</defs>
</svg>
