<svg width="100" height="65" viewBox="0 0 100 65" fill="none" xmlns="http://www.w3.org/2000/svg">
<path d="M36.9728 65C24.6126 65 15.3424 62.414 9.16235 57.2419C3.05412 52 0 43.7527 0 32.5C0 26 1.25758 20.3387 3.77273 15.5161C6.28789 10.6237 10.2762 6.81452 15.7377 4.08871C21.1992 1.36291 28.2775 1.83149e-06 36.9728 1.83149e-06C43.7996 1.83149e-06 50.0129 1.93715e-05 54.5595 1.0355e-05C59.1061 0 64.3023 1.0355e-05 66.2508 0L58.9406 7.68182L54.9671 11.8182H49.0068C49.0068 11.8182 41.6135 11.8182 37.0862 11.8182C32.1278 11.8182 28.2057 12.3011 25.1156 13.8387C22.0974 15.3763 19.8697 17.7177 18.4325 20.8629C17.0671 23.9382 16.3844 27.8172 16.3844 32.5C16.3844 37.1828 17.0671 41.0618 18.4325 44.1371C19.8697 47.2124 22.313 49.5188 25.7624 51.0564C29.2836 52.5941 34.1342 53.3629 40.3143 53.3629C46.4944 53.3629 50.0129 53.3629 54.5595 53.3629H56.9538L67.5499 65C67.5499 65 62.3537 65 56.8829 65C51.4121 65 45.2369 65 36.9728 65Z" fill="#5E1212"/>
<path d="M70.861 65L50.3312 41.9545L64.6718 28.3636L58.9405 11.8182L70.1988 0H76.5924C84.078 0 89.7991 2.26049 93.8355 5.59966C97.9453 8.93883 100 13.7199 100 19.9429C100 24.4963 98.6757 33.0909 93.8355 36.6364C89.2403 40.0024 87.4174 40.1818 70.1988 40.1818L93.8355 65H70.861ZM86.0929 19.9429C86.0929 13.2949 88.7419 11.8182 72.1855 11.8182H58.9405L64.6718 28.3636C71.2943 28.3636 66.6586 28.3636 76.5924 28.3636C86.5262 28.3636 86.0929 26.5909 86.0929 19.9429Z" fill="#F54E4E"/>
</svg>
